<?xml version="1.0" standalone="no"?>
<!DOCTYPE svg PUBLIC "-//W3C//DTD SVG 20010904//EN"
 "http://www.w3.org/TR/2001/REC-SVG-20010904/DTD/svg10.dtd">
<svg version="1.0" xmlns="http://www.w3.org/2000/svg"
 width="640.000000pt" height="640.000000pt" viewBox="0 0 640.000000 640.000000"
 preserveAspectRatio="xMidYMid meet">
<metadata>
Created by potrace 1.14, written by Peter Selinger 2001-2017
</metadata>
<g transform="translate(0.000000,640.000000) scale(0.100000,-0.100000)"
fill="#000000" stroke="none">
<path d="M3215 5795 c-19 -18 -25 -35 -25 -65 0 -81 89 -120 155 -68 l27 21
102 -18 c279 -49 558 -160 766 -306 105 -74 247 -214 318 -315 125 -175 229
-423 277 -658 20 -98 20 -112 7 -138 -28 -58 26 -114 84 -87 23 11 30 22 32
50 2 22 -3 42 -11 51 -8 7 -24 65 -37 128 -136 691 -582 1147 -1291 1320 -64
15 -142 31 -174 35 -46 6 -63 14 -91 41 -43 44 -101 48 -139 9z m81 -56 c10
-17 -13 -36 -27 -22 -12 12 -4 33 11 33 5 0 12 -5 16 -11z m1614 -1518 c0 -6
-4 -13 -10 -16 -5 -3 -10 1 -10 9 0 9 5 16 10 16 6 0 10 -4 10 -9z"/>
<path d="M3009 5755 c-13 -14 -43 -16 -177 -16 -89 0 -177 3 -197 7 -31 5 -35
4 -35 -14 0 -21 26 -37 35 -22 4 6 82 10 184 10 149 0 181 -3 191 -16 8 -8 25
-14 39 -12 22 3 26 8 26 38 0 30 -4 35 -25 38 -14 1 -32 -4 -41 -13z m41 -25
c0 -5 -2 -10 -4 -10 -3 0 -8 5 -11 10 -3 6 -1 10 4 10 6 0 11 -4 11 -10z"/>
<path d="M2500 5671 c0 -8 75 -11 238 -10 270 2 231 14 -55 18 -125 2 -183 -1
-183 -8z"/>
<path d="M3025 5630 c21 -22 41 -40 44 -40 3 0 -13 18 -34 40 -21 22 -41 40
-44 40 -3 0 13 -18 34 -40z"/>
<path d="M2437 5623 c-12 -11 -8 -23 8 -23 8 0 15 7 15 15 0 16 -12 20 -23 8z"/>
<path d="M2480 5615 c0 -8 7 -15 15 -15 8 0 15 7 15 15 0 8 -7 15 -15 15 -8 0
-15 -7 -15 -15z"/>
<path d="M2530 5615 c0 -8 7 -15 15 -15 8 0 15 7 15 15 0 8 -7 15 -15 15 -8 0
-15 -7 -15 -15z"/>
<path d="M2580 5619 c0 -9 52 -10 197 -5 109 4 200 9 202 12 2 2 -86 4 -197 4
-145 0 -202 -3 -202 -11z"/>
<path d="M2400 5610 c0 -5 5 -10 10 -10 6 0 10 5 10 10 0 6 -4 10 -10 10 -5 0
-10 -4 -10 -10z"/>
<path d="M3010 5595 c13 -14 26 -25 28 -25 3 0 -5 11 -18 25 -13 14 -26 25
-28 25 -3 0 5 -11 18 -25z"/>
<path d="M3255 5590 c-142 -6 -138 -6 93 -8 133 -1 245 -2 249 -3 4 0 9 4 11
9 3 11 -112 12 -353 2z"/>
<path d="M2330 5565 c0 -6 64 -8 182 -5 194 4 181 8 -45 12 -86 2 -137 -1
-137 -7z"/>
<path d="M2842 5563 l147 -4 29 -35 c18 -21 32 -31 36 -25 4 6 -8 24 -26 40
l-33 30 -150 -2 -150 -1 147 -3z"/>
<path d="M1882 5548 c-16 -16 -15 -33 3 -48 13 -11 21 -10 48 4 28 14 71 16
376 14 l344 -3 -2 -77 -2 -78 98 0 c62 0 103 -4 111 -12 14 -14 43 7 36 26 -4
9 -32 11 -114 8 l-109 -5 1 77 0 77 -367 3 c-249 3 -371 8 -378 15 -14 14 -30
14 -45 -1z"/>
<path d="M3155 5540 c46 -12 333 -12 340 0 4 7 -59 10 -182 9 -108 -1 -175 -5
-158 -9z"/>
<path d="M2694 5524 c3 -9 6 -29 6 -45 l0 -29 68 1 67 2 -64 9 -63 10 5 34 c5
26 2 34 -10 34 -10 0 -13 -6 -9 -16z"/>
<path d="M2797 5526 c-3 -7 14 -10 49 -8 30 2 54 7 54 11 0 12 -99 8 -103 -3z"/>
<path d="M2744 5501 c-16 -16 10 -21 112 -20 127 1 144 -6 144 -53 0 -19 4
-28 13 -25 17 6 9 48 -15 74 -18 20 -32 22 -135 25 -63 2 -117 1 -119 -1z"/>
<path d="M3198 5483 c-3 -4 -2 -47 0 -95 l4 -88 96 0 c70 0 93 -3 85 -11 -7
-7 -57 -10 -147 -8 l-136 4 0 -35 0 -35 158 0 158 0 0 56 0 56 -99 -5 -99 -5
3 83 c3 57 0 85 -8 87 -6 2 -13 0 -15 -4z m138 -223 c76 0 68 -17 -11 -22 -84
-5 -195 2 -195 13 0 8 112 18 138 12 8 -2 38 -3 68 -3z"/>
<path d="M3926 5481 c-3 -5 -4 -16 0 -24 6 -18 -34 -27 -116 -27 -40 0 -62 -5
-71 -16 -8 -10 -26 -14 -53 -12 -31 2 -41 -1 -41 -12 0 -22 74 -13 101 11 17
16 36 19 112 19 91 0 92 0 92 25 0 14 0 28 1 32 1 12 -19 15 -25 4z"/>
<path d="M2503 5468 c-4 -7 -8 -15 -9 -18 -9 -44 -54 -70 -124 -70 -27 0 -50
-4 -50 -10 0 -6 43 -10 109 -10 86 0 111 -3 121 -15 28 -34 87 6 64 43 -14 22
-41 27 -60 11 -19 -15 -86 -20 -81 -5 2 6 18 18 36 28 44 22 46 25 31 43 -15
18 -26 19 -37 3z m87 -98 c0 -5 -4 -10 -10 -10 -5 0 -10 5 -10 10 0 6 5 10 10
10 6 0 10 -4 10 -10z"/>
<path d="M3277 5425 c6 -54 5 -55 -21 -55 -17 0 -26 -5 -26 -15 0 -12 7 -14
28 -9 15 4 28 7 28 8 1 1 4 29 6 64 3 45 1 62 -8 62 -9 0 -11 -15 -7 -55z"/>
<path d="M2885 5459 l-40 -6 46 -2 c53 -1 81 -24 72 -59 -4 -16 -1 -22 12 -22
14 0 16 5 10 27 -13 54 -42 72 -100 62z"/>
<path d="M3100 5451 c-5 -11 -10 -28 -10 -37 0 -10 -18 -36 -39 -59 -35 -35
-40 -47 -43 -95 -3 -53 -2 -55 24 -58 20 -2 28 2 33 18 4 12 2 27 -4 33 -31
31 24 117 74 117 27 0 55 24 55 46 0 32 -21 54 -50 54 -19 0 -33 -7 -40 -19z
m50 -31 c0 -5 -4 -10 -10 -10 -5 0 -10 5 -10 10 0 6 5 10 10 10 6 0 10 -4 10
-10z m-110 -190 c0 -5 -2 -10 -4 -10 -3 0 -8 5 -11 10 -3 6 -1 10 4 10 6 0 11
-4 11 -10z"/>
<path d="M2693 5426 c2 -6 40 -9 101 -7 85 2 99 0 111 -16 8 -10 15 -28 15
-40 0 -14 6 -23 15 -23 12 0 14 7 9 28 -12 52 -30 60 -147 64 -72 3 -106 1
-104 -6z"/>
<path d="M3442 5405 c0 -16 2 -22 5 -12 2 9 2 23 0 30 -3 6 -5 -1 -5 -18z"/>
<path d="M3460 5420 c0 -5 5 -10 10 -10 6 0 10 5 10 10 0 6 -4 10 -10 10 -5 0
-10 -4 -10 -10z"/>
<path d="M3492 5405 c0 -16 2 -22 5 -12 2 9 2 23 0 30 -3 6 -5 -1 -5 -18z"/>
<path d="M3510 5420 c0 -5 5 -10 10 -10 6 0 10 5 10 10 0 6 -4 10 -10 10 -5 0
-10 -4 -10 -10z"/>
<path d="M3542 5405 c0 -16 2 -22 5 -12 2 9 2 23 0 30 -3 6 -5 -1 -5 -18z"/>
<path d="M3560 5405 c0 -14 5 -25 11 -25 5 0 7 5 4 10 -3 6 -3 16 1 22 6 9 10
5 15 -12 l7 -25 1 28 c1 21 -4 27 -19 27 -15 0 -20 -7 -20 -25z"/>
<path d="M3610 5405 c0 -33 15 -33 16 0 1 14 -2 25 -7 25 -5 0 -9 -11 -9 -25z"/>
<path d="M3354 5395 c6 -22 3 -25 -19 -25 -14 0 -25 -4 -25 -10 0 -5 14 -10
30 -10 23 0 30 5 30 19 0 11 3 26 6 35 4 11 1 16 -11 16 -13 0 -16 -6 -11 -25z"/>
<path d="M2013 5399 c-18 -18 -16 -44 3 -60 13 -10 20 -10 44 4 22 13 53 17
139 17 67 0 111 4 111 10 0 6 -33 10 -77 11 -73 0 -142 9 -188 24 -11 3 -26 0
-32 -6z m37 -29 c0 -5 -4 -10 -10 -10 -5 0 -10 5 -10 10 0 6 5 10 10 10 6 0
10 -4 10 -10z"/>
<path d="M3460 5390 c0 -5 5 -10 10 -10 6 0 10 5 10 10 0 6 -4 10 -10 10 -5 0
-10 -4 -10 -10z"/>
<path d="M3510 5390 c0 -5 5 -10 11 -10 5 0 7 5 4 10 -3 6 -8 10 -11 10 -2 0
-4 -4 -4 -10z"/>
<path d="M1920 5345 c-16 -19 -3 -55 19 -55 10 0 26 -9 36 -20 16 -18 31 -19
232 -19 119 0 235 -3 258 -7 39 -5 44 -4 50 17 10 29 -19 53 -46 39 -10 -6
-72 -10 -139 -10 -78 0 -119 -4 -115 -10 3 -5 -1 -10 -10 -10 -9 0 -13 5 -10
10 4 6 -29 10 -93 10 l-98 0 -17 35 c-18 37 -46 46 -67 20z"/>
<path d="M3442 5273 l3 -78 90 0 90 0 0 75 0 75 -93 3 -93 3 3 -78z m103 -3
c0 -7 -6 -15 -12 -17 -8 -3 -13 4 -13 17 0 13 5 20 13 18 6 -3 12 -11 12 -18z"/>
<path d="M3664 5335 c-4 -10 4 -27 22 -46 27 -29 29 -29 134 -29 64 0 110 -4
117 -11 6 -6 21 -8 33 -4 16 5 20 13 18 33 -3 30 8 29 -154 16 -87 -6 -93 -6
-110 15 -29 35 -53 45 -60 26z"/>
<path d="M3135 5330 c-10 -16 7 -31 23 -21 10 6 10 10 -2 20 -10 9 -16 9 -21
1z"/>
<path d="M2840 5315 c-9 -11 -34 -15 -104 -15 l-91 -1 -47 -44 -48 -43 0 -179
c0 -120 -4 -183 -11 -190 -16 -16 -3 -45 18 -41 14 3 16 23 14 199 l-2 197 43
41 43 40 93 1 c55 0 92 -4 92 -10 0 -16 36 -12 51 6 9 11 10 20 2 32 -14 23
-37 26 -53 7z"/>
<path d="M3105 5320 c-3 -5 -1 -10 4 -10 6 0 11 5 11 10 0 6 -2 10 -4 10 -3 0
-8 -4 -11 -10z"/>
<path d="M4100 5291 c-7 -15 -6 -23 5 -35 22 -21 19 -39 -13 -69 -35 -33 -40
-33 -52 -2 -10 26 -35 34 -42 13 -8 -21 2 -38 23 -38 31 0 22 -23 -31 -75
l-50 -49 0 -116 c0 -66 -4 -120 -10 -126 -15 -15 -1 -46 19 -42 14 3 16 20 13
143 l-4 140 91 84 c54 49 91 90 91 102 0 11 5 28 12 38 6 10 8 26 5 35 -9 22
-44 20 -57 -3z m35 -11 c3 -5 1 -10 -4 -10 -6 0 -11 5 -11 10 0 6 2 10 4 10 3
0 8 -4 11 -10z"/>
<path d="M4222 5278 c-7 -7 -12 -18 -12 -24 0 -7 -43 -52 -95 -100 l-95 -88 0
-172 0 -171 -61 -7 c-83 -10 -182 -41 -257 -82 -34 -19 -71 -34 -82 -34 -10 0
-21 -4 -24 -9 -3 -5 -37 -12 -76 -16 -84 -8 -93 -25 -14 -25 l56 0 -63 -67
c-34 -38 -66 -70 -71 -71 -5 -2 -24 13 -43 34 -26 28 -38 35 -46 27 -16 -16
-4 -43 20 -43 10 0 29 -8 41 -18 l21 -17 -45 -86 c-65 -121 -88 -217 -90 -359
-1 -172 40 -312 132 -447 47 -69 158 -177 224 -218 l48 -30 0 -60 0 -61 -74
-73 -73 -73 -79 3 c-67 3 -79 1 -82 -13 -3 -14 7 -16 80 -11 l83 6 81 76 81
76 2 59 c1 51 3 57 19 51 77 -33 161 -56 240 -66 l92 -13 0 -207 c-1 -189 1
-211 19 -247 29 -57 58 -72 139 -72 51 0 73 -4 82 -16 8 -9 25 -14 44 -12 27
3 31 7 34 35 2 24 -2 34 -18 43 -22 12 -60 5 -60 -11 0 -5 -34 -9 -75 -9 -67
0 -79 3 -100 24 -40 40 -45 84 -45 379 l0 277 -32 0 c-90 1 -259 58 -325 110
l-26 21 -28 -27 -28 -27 -58 60 c-206 212 -246 544 -96 803 49 85 162 196 239
238 34 17 66 32 72 32 5 0 15 -14 21 -31 8 -25 14 -28 28 -21 10 6 54 18 97
27 149 33 306 6 441 -76 33 -20 55 -40 55 -51 0 -25 37 -43 56 -27 23 19 13
53 -16 57 l-25 3 3 162 3 162 51 50 c28 27 46 51 39 53 -16 5 -14 22 4 22 8 0
15 9 15 20 0 16 -7 20 -30 20 -26 0 -30 -3 -29 -27 2 -24 2 -25 6 -5 3 13 11
22 21 21 11 0 12 -3 5 -6 -7 -2 -13 -12 -13 -22 0 -9 -13 -30 -30 -46 -16 -15
-27 -31 -25 -35 3 -4 -2 -13 -9 -19 -9 -8 -16 -8 -20 -2 -4 5 -2 12 3 16 5 3
8 14 6 25 -2 12 0 18 4 16 4 -3 9 18 10 46 1 29 4 55 7 59 2 5 20 6 39 4 19
-3 37 0 40 5 4 6 -14 10 -45 10 -32 0 -49 4 -45 10 3 6 20 10 36 10 17 0 28 4
25 9 -8 12 -53 1 -70 -18 -8 -9 -16 -38 -18 -65 -2 -38 -7 -50 -20 -52 -16 -2
-18 6 -16 64 l1 67 7 -60 c6 -57 7 -58 8 -15 1 25 5 55 8 67 5 18 2 22 -15 20
-19 -1 -21 -7 -21 -74 0 -90 1 -85 -13 -103 -6 -8 -2 -6 11 4 12 11 22 15 22
11 0 -4 9 0 20 10 11 10 20 13 20 8 0 -6 -7 -16 -15 -23 -11 -9 -12 -16 -5
-25 7 -8 4 -17 -10 -30 -18 -16 -20 -31 -20 -132 0 -94 2 -113 15 -113 11 0
14 -7 9 -25 -4 -15 -2 -25 5 -25 7 0 10 22 9 63 0 34 -3 48 -5 29 -2 -18 -9
-30 -14 -27 -12 8 -12 212 1 220 6 3 10 1 10 -5 0 -6 5 -8 10 -5 11 7 15 -261
4 -289 -5 -12 -17 -8 -71 21 -35 20 -90 44 -121 54 -46 14 -51 18 -27 18 l30
1 -3 96 c-3 61 0 100 7 107 8 8 11 8 11 -2 0 -7 5 -9 11 -6 7 5 10 -27 8 -101
l-2 -108 42 -18 41 -17 -2 117 -2 117 -3 -102 c-2 -57 -8 -103 -13 -103 -6 0
-11 46 -12 108 l-2 107 -6 -105 -6 -105 -4 110 -4 110 -6 -105 -5 -105 -5 110
c-5 99 -3 112 15 135 18 22 16 22 -11 -3 -22 -19 -34 -25 -39 -17 -5 8 -12 7
-23 -4 -10 -8 -21 -15 -27 -15 -6 -1 -11 -37 -13 -81 -3 -99 -22 -99 -22 0 0
60 3 72 27 101 32 38 42 70 14 45 -10 -9 -21 -13 -26 -9 -4 5 -5 3 -2 -3 4 -7
0 -17 -8 -24 -8 -7 -15 -9 -15 -5 0 5 -9 0 -20 -10 -16 -15 -20 -32 -22 -94
l-1 -76 -7 60 -7 60 -1 -57 c-3 -86 -22 -71 -22 16 0 41 5 78 10 81 6 3 10 0
10 -7 0 -15 34 31 37 51 1 7 -14 -1 -33 -20 -33 -32 -34 -35 -34 -116 l0 -83
60 0 c49 0 58 -3 54 -15 -5 -12 -21 -14 -88 -9 -74 5 -150 -4 -242 -31 -18 -6
-24 -1 -32 25 -14 38 -26 36 -127 -23 -106 -61 -204 -167 -260 -280 -59 -120
-78 -211 -72 -347 7 -176 67 -318 190 -447 71 -75 82 -80 110 -48 l22 26 59
-35 c73 -44 162 -74 244 -82 l62 -7 0 -58 0 -59 -38 0 c-99 0 -231 41 -347
108 -77 45 -209 179 -258 262 -21 36 -50 101 -64 145 -24 72 -27 95 -27 225
-1 114 3 158 18 205 48 156 188 354 265 375 25 6 42 18 46 30 8 27 73 63 167
94 73 25 198 48 198 38 0 -3 -7 -13 -15 -22 -21 -23 -9 -50 21 -50 29 0 42 25
26 51 -8 13 -12 82 -12 208 l0 189 97 91 c53 50 103 91 111 91 8 0 12 8 10 22
-4 26 -19 33 -36 16z m235 -395 c-2 -16 -4 -3 -4 27 0 30 2 43 4 28 2 -16 2
-40 0 -55z m-10 -68 c0 -8 -4 -12 -9 -9 -5 3 -6 10 -3 15 9 13 12 11 12 -6z
m-243 -26 c-26 -27 -30 -39 -35 -112 l-6 -82 -3 85 -4 85 -6 -85 -6 -85 -2 81
c-1 58 2 85 11 93 8 6 16 9 19 6 2 -3 15 6 28 20 13 14 26 25 29 25 2 0 -8
-14 -25 -31z m-64 7 c0 -2 -8 -10 -17 -17 -16 -13 -17 -12 -4 4 13 16 21 21
21 13z m112 -28 c-7 -7 -13 -48 -14 -102 l-2 -91 -3 88 c-4 81 4 117 25 117 3
0 1 -5 -6 -12z m-35 -145 c-2 -27 -3 -5 -3 47 0 52 1 74 3 48 2 -27 2 -69 0
-95z m-177 17 c0 -5 -4 -10 -10 -10 -5 0 -10 5 -10 10 0 6 5 10 10 10 6 0 10
-4 10 -10z m-410 -80 c0 -5 -4 -10 -10 -10 -5 0 -10 5 -10 10 0 6 5 10 10 10
6 0 10 -4 10 -10z m720 -1914 c0 -3 -4 -8 -10 -11 -5 -3 -10 -1 -10 4 0 6 5
11 10 11 6 0 10 -2 10 -4z"/>
<path d="M1907 5229 c-16 -22 -12 -52 9 -70 11 -9 14 -41 14 -131 0 -115 -1
-120 -27 -154 -27 -33 -31 -34 -95 -34 l-68 0 0 -259 c0 -163 -4 -262 -10
-266 -14 -9 -12 -21 6 -39 12 -12 20 -13 35 -6 16 9 18 19 14 63 -2 29 -7 148
-10 265 l-6 212 58 0 c53 1 62 4 98 38 l40 37 4 134 c2 98 7 138 17 148 18 18
18 33 -2 61 -19 28 -58 29 -77 1z m53 -29 c0 -5 -4 -10 -10 -10 -5 0 -10 5
-10 10 0 6 5 10 10 10 6 0 10 -4 10 -10z m-195 -900 c3 -5 1 -10 -4 -10 -6 0
-11 5 -11 10 0 6 2 10 4 10 3 0 8 -4 11 -10z"/>
<path d="M2880 5230 c-24 -24 -25 -43 -5 -64 10 -9 15 -34 15 -73 0 -56 -2
-61 -40 -98 l-40 -39 0 -296 c0 -284 1 -298 20 -315 12 -11 20 -31 20 -51 0
-58 54 -90 99 -57 55 42 26 130 -40 121 -57 -9 -59 2 -66 300 l-6 271 46 47
c45 45 47 49 47 106 0 45 5 66 20 85 11 14 20 30 20 34 0 15 -39 49 -55 49 -8
0 -24 -9 -35 -20z m45 -30 c3 -5 -1 -10 -10 -10 -9 0 -13 5 -10 10 3 6 8 10
10 10 2 0 7 -4 10 -10z m3 -911 c-2 -6 -8 -10 -13 -10 -5 0 -11 4 -13 10 -2 6
4 11 13 11 9 0 15 -5 13 -11z"/>
<path d="M3645 5240 c-13 -21 6 -24 122 -21 l115 3 34 -33 c19 -18 34 -39 34
-46 0 -7 9 -13 21 -13 31 0 20 22 -34 69 l-48 41 -97 0 c-53 0 -107 3 -118 6
-12 3 -25 1 -29 -6z"/>
<path d="M2040 5199 c0 -22 5 -29 20 -29 11 0 20 4 20 10 0 5 -7 7 -15 4 -10
-4 -15 0 -15 11 0 11 5 15 15 11 8 -3 15 -2 15 3 0 5 -9 11 -20 14 -17 4 -20
0 -20 -24z"/>
<path d="M2092 5200 c0 -19 2 -27 5 -17 2 9 2 25 0 35 -3 9 -5 1 -5 -18z"/>
<path d="M2142 5200 c0 -19 2 -27 5 -17 2 9 2 25 0 35 -3 9 -5 1 -5 -18z"/>
<path d="M2192 5200 c0 -19 2 -27 5 -17 2 9 2 25 0 35 -3 9 -5 1 -5 -18z"/>
<path d="M2219 5228 c-7 -15 -6 -58 2 -58 5 0 9 14 9 30 0 25 -6 39 -11 28z"/>
<path d="M2708 5223 l-98 -4 0 -74 c0 -41 4 -75 8 -75 5 0 8 30 8 68 l-1 67
93 0 c67 0 92 3 92 13 0 6 -1 11 -2 10 -2 -1 -47 -4 -100 -5z"/>
<path d="M4316 5183 c5 -43 3 -51 -20 -72 -27 -26 -36 -19 -12 8 8 9 16 27 18
41 2 21 -2 26 -24 28 -26 3 -27 2 -26 -47 0 -28 4 -51 9 -51 4 0 6 -8 2 -17
-3 -10 4 -6 16 10 12 15 27 27 33 27 7 0 1 -11 -11 -24 -18 -20 -22 -32 -18
-77 l3 -54 2 55 c2 44 7 59 31 85 30 31 49 85 31 85 -5 0 -10 -13 -10 -29 0
-17 -4 -32 -8 -35 -5 -3 -6 22 -4 55 3 38 1 59 -6 59 -7 0 -9 -17 -6 -47z"/>
<path d="M2115 5210 c3 -5 8 -10 11 -10 2 0 4 5 4 10 0 6 -5 10 -11 10 -5 0
-7 -4 -4 -10z"/>
<path d="M2165 5210 c3 -5 8 -10 11 -10 2 0 4 5 4 10 0 6 -5 10 -11 10 -5 0
-7 -4 -4 -10z"/>
<path d="M4230 5040 c0 -101 2 -181 5 -179 6 7 8 350 1 356 -3 4 -6 -76 -6
-177z"/>
<path d="M3140 5180 c0 -13 5 -18 15 -14 8 4 15 10 15 14 0 4 -7 10 -15 14
-10 4 -15 -1 -15 -14z"/>
<path d="M3300 5181 c0 -10 7 -18 15 -18 8 0 15 6 15 13 0 6 -7 14 -15 18 -10
3 -15 -1 -15 -13z"/>
<path d="M4208 5193 c-2 -5 -1 -80 2 -168 l6 -160 2 168 c2 150 0 183 -10 160z"/>
<path d="M1753 5182 c-19 -12 -5 -145 13 -138 8 3 14 1 14 -4 0 -6 -7 -10 -15
-10 -10 0 -15 -10 -15 -29 0 -16 -7 -34 -15 -41 -23 -19 -18 -57 10 -76 23
-15 27 -15 50 0 28 19 33 57 10 76 -18 15 -21 149 -5 180 7 14 6 23 -6 34 -17
18 -24 19 -41 8z m27 -32 c0 -5 -2 -10 -4 -10 -3 0 -8 5 -11 10 -3 6 -1 10 4
10 6 0 11 -4 11 -10z m-4 -237 c-10 -10 -19 5 -10 18 6 11 8 11 12 0 2 -7 1
-15 -2 -18z"/>
<path d="M2110 5180 c0 -5 5 -10 10 -10 6 0 10 5 10 10 0 6 -4 10 -10 10 -5 0
-10 -4 -10 -10z"/>
<path d="M2160 5180 c0 -5 5 -10 10 -10 6 0 10 5 10 10 0 6 -4 10 -10 10 -5 0
-10 -4 -10 -10z"/>
<path d="M3190 5181 c0 -5 7 -11 15 -15 9 -3 15 0 15 9 0 8 -7 15 -15 15 -8 0
-15 -4 -15 -9z"/>
<path d="M3247 5175 c6 -17 25 -15 31 3 2 7 -5 12 -17 12 -14 0 -19 -5 -14
-15z"/>
<path d="M3352 5178 c6 -18 28 -21 28 -4 0 9 -7 16 -16 16 -9 0 -14 -5 -12
-12z"/>
<path d="M3026 5172 c-4 -6 -4 -23 0 -38 7 -28 7 -28 16 -5 9 25 -4 61 -16 43z"/>
<path d="M3620 5125 c0 -30 0 -58 -1 -62 0 -4 4 -9 10 -11 8 -3 10 14 7 53 -5
56 -5 56 21 53 15 -2 28 3 30 10 3 8 -7 12 -31 12 l-36 0 0 -55z"/>
<path d="M3855 5171 l60 -6 6 -60 6 -60 1 56 c1 32 -3 60 -10 67 -7 7 -35 11
-67 10 l-56 -1 60 -6z"/>
<path d="M3475 5162 c-2 -2 -1 -27 2 -54 l6 -50 -192 4 c-166 3 -191 1 -188
-12 1 -8 12 -14 22 -13 11 2 100 3 198 3 l177 1 0 44 c0 24 4 46 8 49 9 5 26
-289 18 -302 -2 -4 -6 -56 -7 -117 -3 -88 -1 -110 10 -110 11 0 13 46 12 262
-1 159 2 263 7 267 6 4 13 -33 17 -91 3 -54 7 -101 8 -104 1 -4 51 -57 110
-119 80 -82 112 -109 120 -101 8 8 -4 25 -45 61 -44 39 -55 55 -51 72 4 18 2
20 -6 8 -11 -16 -23 -8 -88 60 l-33 35 6 90 c4 49 7 96 8 105 1 12 -11 15 -57
16 -31 0 -59 -2 -62 -4z"/>
<path d="M3729 5163 c-1 -4 -2 -39 -3 -78 l-1 -70 -32 -3 c-33 -3 -33 -4 -33
-58 0 -30 5 -54 10 -54 6 0 10 23 10 50 0 42 3 50 18 50 33 0 50 31 54 99 2
45 -1 66 -9 68 -7 3 -14 1 -14 -4z"/>
<path d="M4180 5101 c0 -39 5 -73 10 -76 6 -4 10 22 10 69 0 44 -4 76 -10 76
-6 0 -10 -30 -10 -69z"/>
<path d="M2320 5150 c0 -5 21 -10 48 -10 56 -1 82 -18 82 -54 0 -14 5 -26 10
-26 16 0 0 52 -23 78 -16 17 -31 22 -69 22 -26 0 -48 -4 -48 -10z"/>
<path d="M2025 5130 c-3 -5 -1 -38 4 -72 5 -35 9 -88 8 -118 -2 -45 1 -55 16
-58 15 -3 17 6 17 93 0 53 4 105 10 115 5 10 7 26 4 34 -7 17 -49 22 -59 6z"/>
<path d="M2730 5135 c0 -10 32 -55 40 -55 6 0 30 44 30 55 0 3 -16 5 -35 5
-19 0 -35 -2 -35 -5z"/>
<path d="M3310 5130 c0 -5 5 -10 11 -10 5 0 7 5 4 10 -3 6 -8 10 -11 10 -2 0
-4 -4 -4 -10z"/>
<path d="M3340 5124 c0 -9 5 -14 12 -12 18 6 21 28 4 28 -9 0 -16 -7 -16 -16z"/>
<path d="M3665 5112 c3 -17 2 -40 -4 -50 -8 -15 -7 -23 3 -31 8 -7 16 -8 19
-4 9 17 -1 107 -13 111 -9 3 -10 -4 -5 -26z"/>
<path d="M4337 5094 l-38 -43 4 -88 3 -88 2 92 2 91 41 35 c22 19 37 37 32 40
-4 3 -25 -15 -46 -39z"/>
<path d="M2112 5095 c2 -14 9 -19 23 -16 11 2 69 6 128 8 87 3 113 1 133 -12
l24 -15 0 -225 c0 -131 -4 -226 -10 -230 -14 -9 0 -36 18 -33 13 3 14 37 13
248 -2 310 12 287 -189 292 -139 3 -143 3 -140 -17z"/>
<path d="M3770 5075 c0 -25 4 -45 8 -45 5 0 9 20 10 45 0 25 -4 45 -9 45 -5 0
-9 -20 -9 -45z"/>
<path d="M1840 5090 c0 -13 7 -20 20 -20 13 0 20 7 20 20 0 13 -7 20 -20 20
-13 0 -20 -7 -20 -20z"/>
<path d="M2804 5073 c-9 -24 -85 -103 -99 -103 -16 0 -51 41 -60 68 -9 29 -39
25 -43 -6 -3 -16 2 -22 15 -22 11 0 32 -14 49 -31 l29 -30 -42 -38 -43 -37 0
-167 c0 -116 -4 -173 -12 -187 -23 -37 16 -74 46 -44 15 15 15 18 1 40 -12 19
-15 56 -15 187 l0 163 48 47 c52 51 67 58 59 27 -6 -22 9 -26 33 -10 13 9 12
12 -4 25 -19 15 -19 16 10 46 16 17 39 35 52 40 15 6 22 16 20 26 -5 24 -37
29 -44 6z m-174 -573 c0 -5 -5 -10 -11 -10 -5 0 -7 5 -4 10 3 6 8 10 11 10 2
0 4 -4 4 -10z"/>
<path d="M3702 5070 c0 -14 2 -19 5 -12 2 6 2 18 0 25 -3 6 -5 1 -5 -13z"/>
<path d="M3811 5056 c-2 -43 -46 -86 -90 -87 l-36 -2 40 -7 c39 -7 39 -7 8 -9
-18 0 -33 -5 -33 -10 0 -5 15 -5 33 -2 17 4 31 11 30 16 -1 6 12 24 28 41 23
24 30 38 26 60 l-4 29 -2 -29z"/>
<path d="M3835 5070 c3 -5 8 -10 11 -10 2 0 4 5 4 10 0 6 -5 10 -11 10 -5 0
-7 -4 -4 -10z"/>
<path d="M3860 5070 c0 -5 5 -10 10 -10 6 0 10 5 10 10 0 6 -4 10 -10 10 -5 0
-10 -4 -10 -10z"/>
<path d="M4337 5062 c-14 -15 -17 -37 -15 -113 l2 -94 3 90 c4 104 16 125 72
125 42 0 31 -17 -14 -22 -27 -3 -30 -6 -32 -43 l-1 -40 6 35 c6 32 10 35 45
38 25 2 37 8 37 18 0 11 6 13 20 9 11 -4 20 -2 20 4 0 7 -25 11 -63 11 -49 0
-68 -4 -80 -18z"/>
<path d="M1840 5031 c0 -15 6 -21 21 -21 25 0 22 33 -4 38 -12 2 -17 -3 -17
-17z"/>
<path d="M3834 5035 c-12 -29 4 -46 38 -43 28 2 34 8 36 31 3 25 1 27 -33 27
-22 0 -38 -6 -41 -15z m46 -15 c0 -5 -4 -10 -10 -10 -5 0 -10 5 -10 10 0 6 5
10 10 10 6 0 10 -4 10 -10z"/>
<path d="M3010 5026 c0 -8 -27 -40 -60 -72 l-60 -57 0 -129 c0 -80 -4 -135
-12 -147 -15 -24 -4 -51 22 -51 26 0 37 27 22 51 -8 12 -12 66 -12 142 l0 123
53 51 c28 28 62 54 75 58 14 4 22 13 20 23 -4 22 -48 29 -48 8z m-100 -426 c0
-5 -4 -10 -10 -10 -5 0 -10 5 -10 10 0 6 5 10 10 10 6 0 10 -4 10 -10z"/>
<path d="M2200 5005 c0 -20 5 -25 25 -25 20 0 25 5 25 25 0 20 -5 25 -25 25
-20 0 -25 -5 -25 -25z"/>
<path d="M2270 5005 c0 -20 5 -25 25 -25 20 0 25 5 25 25 0 20 -5 25 -25 25
-20 0 -25 -5 -25 -25z"/>
<path d="M4418 5022 l-48 -3 2 -77 2 -77 3 73 4 72 74 0 c41 0 75 4 75 9 0 9
-15 9 -112 3z"/>
<path d="M1653 5013 c9 -2 25 -2 35 0 9 3 1 5 -18 5 -19 0 -27 -2 -17 -5z"/>
<path d="M2137 4957 l5 -62 -78 -78 -79 -77 -75 1 c-68 2 -75 0 -75 -17 0 -12
5 -17 15 -14 8 2 43 5 78 6 l64 1 83 84 83 84 5 68 c4 59 3 67 -13 67 -16 0
-17 -7 -13 -63z"/>
<path d="M3300 4955 l0 -45 68 0 c75 0 105 -17 100 -58 -2 -11 2 -21 7 -21 16
0 8 49 -11 70 -13 15 -31 19 -81 19 l-63 0 0 40 c0 22 -4 40 -10 40 -5 0 -10
-20 -10 -45z"/>
<path d="M3919 4960 c-6 -45 -4 -58 7 -48 3 3 4 26 2 49 l-3 44 -6 -45z"/>
<path d="M2780 4975 c-8 -9 -8 -15 -2 -15 12 0 26 19 19 26 -2 2 -10 -2 -17
-11z"/>
<path d="M3140 4980 c0 -5 23 -10 50 -10 28 0 50 5 50 10 0 6 -22 10 -50 10
-27 0 -50 -4 -50 -10z"/>
<path d="M1840 4959 c0 -14 5 -19 17 -17 26 5 29 38 4 38 -15 0 -21 -6 -21
-21z"/>
<path d="M2600 4956 c0 -21 5 -26 26 -26 21 0 25 4 22 23 -2 14 -11 23 -25 25
-19 3 -23 -1 -23 -22z"/>
<path d="M3818 4973 c18 -2 45 -2 60 0 15 2 0 4 -33 4 -33 0 -45 -2 -27 -4z"/>
<path d="M1567 4959 c-20 -12 -22 -40 -5 -57 9 -9 4 -20 -22 -47 l-33 -34 6
-100 7 -100 -50 -42 -50 -42 0 -62 c0 -34 -5 -66 -12 -73 -9 -9 -9 -16 4 -28
28 -28 36 -8 31 74 l-5 77 46 45 46 44 0 99 0 99 45 51 c25 29 45 59 45 69 0
23 -31 39 -53 27z m23 -29 c0 -5 -2 -10 -4 -10 -3 0 -8 5 -11 10 -3 6 -1 10 4
10 6 0 11 -4 11 -10z"/>
<path d="M1653 4963 c9 -2 25 -2 35 0 9 3 1 5 -18 5 -19 0 -27 -2 -17 -5z"/>
<path d="M3855 4950 l-30 -8 33 -1 c17 0 32 4 32 9 0 6 -1 9 -2 9 -2 -1 -16
-5 -33 -9z"/>
<path d="M2204 4937 c-3 -8 -4 -43 -2 -78 l3 -64 90 0 90 0 0 75 0 75 -88 3
c-67 2 -89 0 -93 -11z m106 -73 c0 -16 -16 -19 -25 -4 -8 13 4 32 16 25 5 -4
9 -13 9 -21z"/>
<path d="M3031 4936 c-9 -11 -10 -20 -2 -35 7 -11 11 -85 11 -178 l0 -158 -81
-81 c-75 -75 -90 -104 -55 -104 7 0 50 38 95 85 l81 84 2 176 c1 96 2 185 2
198 1 27 -34 36 -53 13z m34 -16 c3 -5 1 -10 -4 -10 -6 0 -11 5 -11 10 0 6 2
10 4 10 3 0 8 -4 11 -10z"/>
<path d="M3132 4873 l3 -68 120 -3 c132 -3 162 -15 150 -59 -4 -16 -1 -23 8
-23 23 0 27 11 12 39 -24 47 -40 54 -115 52 -38 -1 -90 1 -116 5 l-46 7 4 58
c3 45 1 59 -9 59 -11 0 -13 -16 -11 -67z"/>
<path d="M1640 4919 c0 -5 14 -9 32 -9 36 0 31 12 -7 16 -14 1 -25 -2 -25 -7z"/>
<path d="M3725 4919 l-40 -7 43 2 c45 2 49 -2 30 -24 -7 -8 -3 -6 10 4 12 11
22 20 22 21 0 8 -30 10 -65 4z"/>
<path d="M3820 4915 c0 -8 5 -15 10 -15 6 0 10 7 10 15 0 8 -4 15 -10 15 -5 0
-10 -7 -10 -15z"/>
<path d="M3870 4920 c0 -5 5 -10 10 -10 6 0 10 5 10 10 0 6 -4 10 -10 10 -5 0
-10 -4 -10 -10z"/>
<path d="M4479 4890 c-2 -49 -2 -51 -13 -70 -5 -8 3 -4 17 9 28 26 35 37 15
25 -8 -5 -9 5 -5 34 3 23 1 42 -4 42 -5 0 -10 -18 -10 -40z"/>
<path d="M2707 4883 c-2 -4 -2 -63 1 -130 4 -112 6 -123 23 -123 17 0 19 10
21 100 1 55 2 112 2 128 1 20 -4 28 -21 30 -11 2 -23 0 -26 -5z m33 -133 c0
-5 -4 -10 -10 -10 -5 0 -10 5 -10 10 0 6 5 10 10 10 6 0 10 -4 10 -10z"/>
<path d="M3703 4883 c9 -2 23 -2 30 0 6 3 -1 5 -18 5 -16 0 -22 -2 -12 -5z"/>
<path d="M1640 4868 c0 -4 14 -8 30 -8 17 0 30 4 30 9 0 5 -13 9 -30 9 -16 -1
-30 -5 -30 -10z"/>
<path d="M3202 4860 c3 -11 13 -14 43 -10 22 3 66 5 97 4 64 0 101 -23 96 -57
-2 -11 3 -22 11 -25 18 -6 5 57 -17 80 -24 23 -234 31 -230 8z"/>
<path d="M3569 4868 c-3 -50 1 -210 5 -217 3 -5 41 9 84 31 l77 39 -74 80
c-73 78 -90 91 -92 67z m97 -99 c3 -6 1 -16 -5 -22 -9 -9 -14 -8 -21 3 -9 15
-4 30 10 30 5 0 12 -5 16 -11z"/>
<path d="M3778 4873 c6 -2 18 -2 25 0 6 3 1 5 -13 5 -14 0 -19 -2 -12 -5z"/>
<path d="M3848 4874 c-4 -3 -3 -18 2 -33 5 -17 3 -36 -5 -51 -16 -29 -9 -50
15 -50 23 0 30 19 18 44 -6 10 -8 36 -5 57 4 27 1 39 -7 39 -7 0 -15 -3 -18
-6z"/>
<path d="M1583 4838 c-32 -33 -33 -36 -33 -122 0 -49 4 -85 9 -82 13 8 21 -18
10 -35 -5 -8 -9 -9 -9 -3 0 6 -20 -8 -44 -31 -40 -37 -45 -46 -47 -90 -5 -110
-8 -105 71 -105 48 0 72 4 76 13 2 7 3 119 2 250 l-3 238 -32 -33z"/>
<path d="M3730 4860 c0 -5 5 -10 10 -10 6 0 10 5 10 10 0 6 -4 10 -10 10 -5 0
-10 -4 -10 -10z"/>
<path d="M2002 4838 c6 -18 28 -21 28 -4 0 9 -7 16 -16 16 -9 0 -14 -5 -12
-12z"/>
<path d="M1640 4821 c0 -5 11 -8 25 -8 14 0 28 3 31 8 3 5 -9 9 -25 9 -17 0
-31 -4 -31 -9z"/>
<path d="M2652 4818 c6 -18 28 -21 28 -4 0 9 -7 16 -16 16 -9 0 -14 -5 -12
-12z"/>
<path d="M1970 4805 c0 -8 7 -15 15 -15 8 0 15 7 15 15 0 8 -7 15 -15 15 -8 0
-15 -7 -15 -15z"/>
<path d="M1940 4776 c0 -9 7 -16 16 -16 9 0 14 5 12 12 -6 18 -28 21 -28 4z"/>
<path d="M1640 4771 c0 -5 11 -8 25 -7 38 4 43 16 7 16 -18 0 -32 -4 -32 -9z"/>
<path d="M2657 4773 c-12 -11 -8 -23 8 -23 8 0 15 7 15 15 0 16 -12 20 -23 8z"/>
<path d="M2211 4763 l-125 -4 -53 -50 -54 -51 -57 4 c-31 3 -64 7 -72 9 -9 3
-15 -3 -15 -15 0 -18 7 -19 75 -17 l75 2 52 51 51 50 136 -4 c125 -3 136 -2
136 14 0 10 -6 17 -12 16 -7 -1 -69 -4 -137 -5z"/>
<path d="M2532 4737 c-27 -28 -32 -41 -32 -80 0 -26 4 -47 9 -47 5 0 6 19 4
43 -5 40 -2 46 31 75 20 17 36 34 36 37 0 13 -19 2 -48 -28z"/>
<path d="M3138 4763 c-14 -3 -18 -15 -18 -49 0 -24 0 -47 -1 -51 0 -4 4 -9 9
-11 6 -2 10 17 9 45 -2 44 0 48 21 45 15 -2 22 2 22 12 0 16 -9 18 -42 9z"/>
<path d="M3200 4755 c0 -9 19 -11 70 -7 81 5 113 -12 108 -57 -2 -13 3 -26 10
-28 22 -8 14 52 -10 74 -18 16 -41 22 -100 25 -57 4 -78 2 -78 -7z"/>
<path d="M4365 4759 c-5 -8 -4 -10 3 -5 9 5 13 -19 14 -86 l2 -93 3 89 c4 85
-5 123 -22 95z"/>
<path d="M4270 4670 c-6 -75 -5 -88 5 -78 3 3 5 39 3 79 l-3 74 -5 -75z"/>
<path d="M1640 4726 c0 -8 51 -13 56 -5 3 5 -9 9 -25 9 -17 0 -31 -2 -31 -4z"/>
<path d="M2657 4723 c-12 -11 -8 -23 8 -23 8 0 15 7 15 15 0 16 -12 20 -23 8z"/>
<path d="M4493 4713 c9 -2 25 -2 35 0 9 3 1 5 -18 5 -19 0 -27 -2 -17 -5z"/>
<path d="M4648 4703 c-16 -4 -18 -19 -19 -109 -1 -57 -2 -108 -3 -114 -1 -5 3
-10 8 -10 6 0 8 47 7 110 l-3 111 26 -7 c20 -5 26 -2 26 10 0 16 -9 18 -42 9z"/>
<path d="M2208 4690 l-127 -6 -51 -48 c-50 -47 -52 -48 -108 -44 -31 2 -64 6
-72 9 -10 2 -15 -3 -15 -16 0 -18 6 -20 75 -17 l75 4 52 50 51 50 136 -4 c115
-3 136 -1 134 11 -4 19 -2 19 -150 11z"/>
<path d="M4493 4683 c9 -2 25 -2 35 0 9 3 1 5 -18 5 -19 0 -27 -2 -17 -5z"/>
<path d="M1653 4673 c9 -2 25 -2 35 0 9 3 1 5 -18 5 -19 0 -27 -2 -17 -5z"/>
<path d="M2533 4654 c-3 -9 -1 -25 5 -35 8 -12 12 -73 12 -166 l1 -148 79 -55
c79 -54 80 -56 80 -98 0 -23 -6 -51 -12 -62 -16 -25 -1 -54 30 -58 31 -5 48
33 28 63 -9 14 -16 45 -16 70 l0 45 -80 52 c-44 29 -82 60 -84 68 -3 8 -2 85
3 170 5 85 7 158 4 163 -8 13 -44 7 -50 -9z m37 -14 c0 -5 -4 -10 -10 -10 -5
0 -10 5 -10 10 0 6 5 10 10 10 6 0 10 -4 10 -10z m170 -570 c0 -5 -4 -10 -10
-10 -5 0 -10 5 -10 10 0 6 5 10 10 10 6 0 10 -4 10 -10z"/>
<path d="M4493 4653 c9 -2 23 -2 30 0 6 3 -1 5 -18 5 -16 0 -22 -2 -12 -5z"/>
<path d="M3925 4641 c-17 -7 -17 -8 8 -15 33 -8 56 2 36 15 -16 10 -18 10 -44
0z"/>
<path d="M4547 4604 c6 -45 6 -45 -21 -38 -20 5 -26 3 -26 -11 0 -14 5 -16 27
-10 34 8 29 1 36 58 5 37 4 47 -8 47 -12 0 -13 -9 -8 -46z"/>
<path d="M1653 4623 c9 -2 25 -2 35 0 9 3 1 5 -18 5 -19 0 -27 -2 -17 -5z"/>
<path d="M3102 4618 c-17 -17 -15 -53 3 -68 13 -11 15 -58 15 -317 0 -192 4
-312 10 -324 8 -14 8 -19 -2 -17 -7 2 -13 -7 -14 -19 -1 -21 0 -21 22 -5 l23
17 1 323 c0 274 2 326 15 338 18 18 20 55 3 72 -7 7 -24 12 -38 12 -14 0 -31
-5 -38 -12z m48 -38 c0 -5 -4 -10 -10 -10 -5 0 -10 5 -10 10 0 6 5 10 10 10 6
0 10 -4 10 -10z"/>
<path d="M4493 4623 c9 -2 23 -2 30 0 6 3 -1 5 -18 5 -16 0 -22 -2 -12 -5z"/>
<path d="M2153 4600 c1 -8 11 -14 22 -12 11 1 45 2 75 2 30 0 64 -1 75 -2 11
-2 21 4 22 12 3 13 -13 15 -97 15 -84 0 -100 -2 -97 -15z"/>
<path d="M2041 4588 c-5 -13 -20 -34 -35 -47 -24 -22 -31 -24 -101 -18 -68 5
-76 4 -73 -11 3 -14 14 -16 78 -14 66 3 79 7 105 31 17 16 38 31 48 35 10 3
17 13 15 23 -5 26 -27 27 -37 1z"/>
<path d="M4480 4599 c0 -5 11 -9 25 -9 33 0 33 15 0 16 -14 1 -25 -2 -25 -7z"/>
<path d="M2696 4584 c-20 -19 -20 -38 -1 -54 18 -15 21 -150 4 -167 -29 -29
14 -89 49 -67 21 13 28 54 11 64 -17 11 -18 155 -1 171 6 7 12 19 12 25 0 17
-28 44 -45 44 -7 0 -21 -7 -29 -16z m31 -146 c-3 -8 -6 -5 -6 6 -1 11 2 17 5
13 3 -3 4 -12 1 -19z m13 -108 c0 -5 -4 -10 -10 -10 -5 0 -10 5 -10 10 0 6 5
10 10 10 6 0 10 -4 10 -10z"/>
<path d="M3243 4589 c-18 -18 -16 -44 3 -60 14 -11 21 -10 46 4 19 11 51 17
89 17 32 0 59 4 59 8 0 4 -33 13 -72 19 -40 6 -82 14 -93 17 -11 4 -25 2 -32
-5z m37 -29 c0 -5 -4 -10 -10 -10 -5 0 -10 5 -10 10 0 6 5 10 10 10 6 0 10 -4
10 -10z"/>
<path d="M1640 4579 c0 -5 14 -9 31 -9 16 0 28 4 25 9 -3 5 -17 9 -31 9 -14 0
-25 -4 -25 -9z"/>
<path d="M2183 4573 c-21 -4 -23 -10 -23 -60 0 -38 4 -53 12 -51 8 3 11 21 9
50 -2 44 -2 45 23 41 19 -4 26 -1 26 11 0 16 -5 17 -47 9z"/>
<path d="M2116 4563 c-11 -11 -6 -23 9 -23 8 0 15 4 15 9 0 13 -16 22 -24 14z"/>
<path d="M2358 4551 c-20 -28 -107 -98 -145 -116 -36 -17 -42 -32 -17 -42 10
-4 26 6 45 30 28 35 111 97 128 97 5 0 14 6 20 14 8 10 8 16 -3 25 -11 10 -17
8 -28 -8z"/>
<path d="M2457 4553 c-12 -11 -8 -40 8 -53 12 -10 15 -37 15 -120 l0 -107 -59
-49 c-58 -47 -60 -51 -62 -99 -1 -27 -1 -55 0 -62 1 -6 -3 -14 -9 -18 -5 -3
-10 -15 -10 -26 0 -13 7 -19 24 -19 24 0 24 1 19 83 l-6 83 56 50 55 49 7 110
c3 61 11 120 17 132 6 12 8 29 5 37 -6 16 -48 22 -60 9z m43 -23 c0 -5 -4 -10
-10 -10 -5 0 -10 5 -10 10 0 6 5 10 10 10 6 0 10 -4 10 -10z"/>
<path d="M1640 4530 c0 -5 14 -10 30 -10 17 0 30 5 30 10 0 6 -13 10 -30 10
-16 0 -30 -4 -30 -10z"/>
<path d="M2337 4475 c-29 -37 -97 -86 -131 -95 -25 -7 -32 -28 -12 -36 10 -4
25 3 39 17 38 41 111 97 141 108 15 6 26 17 23 24 -8 24 -32 17 -60 -18z"/>
<path d="M1640 4481 c0 -5 11 -8 25 -8 14 0 28 3 31 8 3 5 -9 9 -25 9 -17 0
-31 -4 -31 -9z"/>
<path d="M2030 4475 c0 -6 14 -12 30 -12 17 0 30 6 30 12 0 6 -13 12 -30 12
-16 0 -30 -6 -30 -12z"/>
<path d="M2107 4484 c-8 -8 1 -24 14 -24 5 0 9 7 9 15 0 15 -12 20 -23 9z"/>
<path d="M3202 4478 c-16 -16 -15 -43 3 -58 13 -11 15 -55 15 -284 l0 -272
-40 -39 -40 -39 0 -96 c0 -84 3 -99 20 -115 12 -11 20 -31 20 -50 0 -38 16
-55 50 -55 31 0 60 28 60 57 0 26 -31 53 -61 53 -42 0 -49 17 -49 113 0 89 0
90 34 123 l34 33 1 283 c1 155 5 285 10 288 14 9 19 34 9 53 -10 20 -48 23
-66 5z m38 -28 c0 -5 -2 -10 -4 -10 -3 0 -8 5 -11 10 -3 6 -1 10 4 10 6 0 11
-4 11 -10z m2 -925 c0 -5 -5 -11 -11 -13 -6 -2 -11 4 -11 13 0 9 5 15 11 13 6
-2 11 -8 11 -13z"/>
<path d="M3905 4457 c-372 -124 -497 -580 -240 -874 117 -134 319 -206 489
-174 33 6 62 9 65 6 30 -31 -178 -47 -279 -21 -197 50 -350 194 -411 386 -31
99 -29 232 5 333 14 43 42 102 60 132 45 70 130 151 172 165 35 12 45 36 19
46 -10 4 -47 -26 -108 -87 -136 -136 -187 -253 -187 -427 0 -199 91 -371 256
-481 130 -87 209 -103 466 -92 59 3 80 20 57 48 -14 16 -16 13 41 42 25 13 70
43 102 67 l56 44 236 0 c146 0 237 -4 241 -10 3 -5 15 -10 26 -10 14 0 19 7
19 25 0 18 -5 25 -20 25 -11 0 -20 -4 -20 -10 0 -6 -89 -10 -246 -10 l-246 0
-46 -41 c-26 -22 -78 -55 -117 -74 -362 -171 -778 111 -752 510 16 237 186
435 418 485 115 25 304 -5 356 -56 29 -29 53 -31 53 -4 0 14 -7 20 -22 20 -12
0 -51 12 -87 27 -55 22 -85 27 -176 30 -95 3 -120 0 -180 -20z"/>
<path d="M1833 4395 l0 -60 76 1 c59 0 76 4 76 15 0 9 -9 13 -25 12 -85 -8
-127 0 -99 18 19 12 243 11 255 -1 14 -14 38 5 31 24 -5 13 -13 15 -34 9 -36
-9 -240 -10 -249 0 -17 17 22 23 96 15 16 -2 25 2 25 11 0 11 -17 15 -76 15
l-76 1 0 -60z"/>
<path d="M2358 4442 c-7 -10 -50 -47 -95 -82 l-83 -63 0 -54 0 -54 -532 1
c-496 1 -533 0 -537 -16 -2 -14 2 -16 29 -10 18 3 264 6 546 6 l514 0 0 58 0
59 79 61 c44 34 84 62 89 62 5 0 15 6 21 14 8 10 8 16 -3 25 -11 9 -17 8 -28
-7z"/>
<path d="M2600 4438 c0 -5 11 -8 25 -8 14 0 25 3 25 8 0 4 -11 7 -25 7 -14 0
-25 -3 -25 -7z"/>
<path d="M4603 4438 c-22 -10 -24 -17 -27 -60 -1 -17 -50 -61 -250 -220 l-109
-87 -29 24 c-27 23 -85 45 -118 45 -61 0 -146 -54 -174 -109 -49 -98 -7 -219
92 -263 92 -41 208 -3 252 82 24 47 27 132 5 174 -15 28 -14 31 12 58 28 30
217 178 227 178 2 0 20 -26 40 -58 38 -64 66 -153 66 -215 l0 -39 -67 3 c-55
3 -68 1 -68 -11 0 -8 8 -15 18 -14 9 0 45 1 78 2 l62 2 -6 68 c-6 70 -50 194
-87 244 -11 15 -20 29 -20 32 0 2 19 19 41 37 32 25 50 32 76 31 19 -2 41 2
49 9 22 18 17 66 -8 83 -26 18 -25 18 -55 4z m37 -49 c0 -5 -4 -9 -10 -9 -5 0
-10 7 -10 16 0 8 5 12 10 9 6 -3 10 -10 10 -16z m-489 -285 c38 -19 56 -43 40
-54 -8 -5 -27 1 -49 16 -122 83 -279 -77 -197 -202 23 -35 74 -64 113 -64 23
0 32 -5 33 -17 1 -16 2 -16 6 -1 2 9 17 22 34 28 65 27 100 108 76 177 -12 36
-12 44 -1 54 11 9 17 4 29 -24 47 -112 -22 -235 -141 -253 -53 -8 -80 -2 -124
28 -54 37 -73 71 -78 137 -4 49 0 67 19 101 48 85 154 117 240 74z m-65 -155
c8 -14 -18 -31 -30 -19 -9 9 0 30 14 30 5 0 12 -5 16 -11z m404 -3 c0 -3 -4
-8 -10 -11 -5 -3 -10 -1 -10 4 0 6 5 11 10 11 6 0 10 -2 10 -4z"/>
<path d="M1640 4431 c0 -5 11 -8 25 -7 38 4 43 16 7 16 -18 0 -32 -4 -32 -9z"/>
<path d="M3013 4424 c-3 -9 -1 -25 5 -35 7 -11 12 -57 12 -106 l0 -86 -70 -73
-70 -72 -1 -103 0 -104 -44 -35 c-43 -34 -44 -36 -44 -96 -1 -33 -6 -65 -12
-71 -16 -16 -4 -43 20 -43 18 0 19 6 14 80 l-6 80 48 42 48 42 -6 101 -6 100
75 70 74 71 0 92 c0 53 5 100 12 111 15 24 4 51 -22 51 -11 0 -23 -7 -27 -16z
m37 -14 c0 -5 -4 -10 -10 -10 -5 0 -10 5 -10 10 0 6 5 10 10 10 6 0 10 -4 10
-10z"/>
<path d="M3890 4410 c-8 -5 -10 -10 -5 -10 6 0 17 5 25 10 8 5 11 10 5 10 -5
0 -17 -5 -25 -10z"/>
<path d="M4040 4409 c-8 -5 -27 -9 -42 -9 -38 0 -135 -38 -183 -70 -142 -97
-223 -265 -208 -429 19 -201 168 -370 364 -412 89 -19 207 -6 286 30 37 18 75
38 83 46 8 7 26 15 40 17 33 4 35 42 3 46 -13 2 -24 -1 -24 -7 -1 -6 -2 -15
-3 -21 0 -5 -18 -21 -38 -35 -135 -92 -328 -98 -473 -15 -72 41 -150 127 -188
207 -26 57 -32 83 -35 160 -5 112 18 200 76 283 73 105 220 190 329 190 24 0
43 4 43 9 0 16 -15 20 -30 10z"/>
<path d="M2600 4399 c0 -5 11 -9 25 -9 14 0 25 4 25 9 0 5 -11 9 -25 9 -14 0
-25 -4 -25 -9z"/>
<path d="M4250 4400 c8 -5 20 -10 25 -10 6 0 3 5 -5 10 -8 5 -19 10 -25 10 -5
0 -3 -5 5 -10z"/>
<path d="M3820 4379 c-19 -12 -43 -28 -53 -37 -10 -9 -25 -17 -33 -18 -22 -3
-27 -11 -21 -28 7 -19 37 -10 37 10 0 8 28 32 62 54 63 41 70 56 8 19z"/>
<path d="M1640 4382 c0 -9 47 -8 57 1 3 4 -8 7 -25 7 -18 0 -32 -4 -32 -8z"/>
<path d="M2348 4374 c-4 -3 -4 -30 -1 -60 6 -54 1 -62 -26 -45 -20 13 -51 -5
-51 -29 0 -27 13 -32 70 -24 l51 7 -3 76 c-2 59 -6 76 -18 79 -9 1 -19 0 -22
-4z"/>
<path d="M4310 4377 c0 -3 16 -15 34 -27 19 -11 38 -30 41 -41 4 -11 14 -19
23 -17 23 4 27 27 5 34 -20 6 -48 20 -80 42 -13 8 -23 12 -23 9z"/>
<path d="M2600 4361 c0 -5 11 -8 25 -8 14 0 25 3 25 8 0 5 -11 9 -25 9 -14 0
-25 -4 -25 -9z"/>
<path d="M3967 4359 c-113 -27 -232 -120 -281 -222 -30 -61 -58 -185 -44 -193
15 -10 20 1 22 54 4 62 51 165 100 220 46 51 115 95 185 117 120 39 316 -2
375 -78 23 -29 46 -30 46 -2 0 12 -15 21 -121 76 -73 37 -193 49 -282 28z"/>
<path d="M1356 4353 c-23 -24 3 -28 164 -28 146 0 170 2 168 15 -3 12 -14 14
-53 10 -62 -6 -219 -4 -249 4 -13 3 -26 3 -30 -1z"/>
<path d="M2789 4333 c-1 -5 0 -25 1 -46 1 -35 0 -38 -22 -35 -15 2 -23 -2 -23
-12 0 -10 8 -14 24 -12 14 1 26 3 26 5 8 10 12 107 5 107 -6 0 -10 -3 -11 -7z"/>
<path d="M1340 4301 c0 -6 0 -14 0 -17 0 -5 315 -9 356 -5 4 1 2 7 -4 14 -9
10 -29 11 -89 5 -72 -7 -205 -3 -245 8 -10 3 -18 1 -18 -5z"/>
<path d="M1847 4259 c-10 -18 -15 -34 -12 -38 8 -7 44 39 45 57 0 21 -14 13
-33 -19z"/>
<path d="M1900 4278 c0 -6 -7 -20 -17 -30 -9 -10 -13 -21 -9 -25 7 -7 55 45
56 60 0 4 -7 7 -15 7 -8 0 -15 -5 -15 -12z"/>
<path d="M1936 4265 c-18 -27 -21 -45 -8 -45 8 0 16 14 40 63 9 19 -18 4 -32
-18z"/>
<path d="M1976 4258 c-18 -36 -19 -38 -8 -38 8 0 16 14 40 63 2 4 -1 7 -6 7
-6 0 -18 -14 -26 -32z"/>
<path d="M2019 4263 c-7 -16 -15 -31 -17 -35 -2 -5 1 -8 6 -8 9 0 42 53 42 67
0 13 -19 -2 -31 -24z"/>
<path d="M2059 4263 c-7 -16 -15 -31 -17 -35 -2 -5 1 -8 7 -8 9 0 41 50 41 65
0 15 -18 2 -31 -22z"/>
<path d="M2110 4278 c0 -6 -7 -20 -17 -30 -9 -10 -13 -21 -9 -25 7 -7 55 45
56 60 0 4 -7 7 -15 7 -8 0 -15 -5 -15 -12z"/>
<path d="M4025 4253 c3 -8 5 -22 6 -31 0 -14 2 -13 9 3 13 30 12 42 -5 42 -10
0 -14 -6 -10 -14z"/>
<path d="M4058 4250 c-7 -24 -3 -38 8 -28 3 4 4 17 2 30 l-3 23 -7 -25z"/>
<path d="M4082 4245 c0 -16 2 -22 5 -12 2 9 2 23 0 30 -3 6 -5 -1 -5 -18z"/>
<path d="M4103 4246 c1 -19 8 -30 20 -32 19 -2 20 1 7 31 -8 18 -9 18 -10 -5
-2 -24 -3 -23 -10 5 l-9 30 2 -29z"/>
<path d="M4703 4263 c-20 -4 -23 -11 -23 -49 0 -24 0 -47 -1 -51 0 -4 4 -9 10
-11 7 -2 11 14 11 42 0 41 2 46 23 43 13 -1 22 3 22 12 0 16 -11 20 -42 14z"/>
<path d="M4770 4224 c0 -40 -2 -45 -19 -39 -21 6 -39 -12 -25 -25 5 -5 21 -6
37 -3 25 5 27 8 27 59 0 30 -4 54 -10 54 -5 0 -10 -21 -10 -46z"/>
<path d="M1334 4245 c-10 -26 7 -35 51 -25 49 12 195 12 252 1 30 -6 46 -5 53
4 19 23 -8 32 -68 22 -56 -9 -235 -3 -266 9 -10 4 -18 0 -22 -11z"/>
<path d="M4144 4240 c3 -14 6 -29 6 -34 0 -4 6 -6 14 -3 8 3 17 1 20 -6 3 -8
5 -7 6 3 0 10 6 6 15 -10 8 -14 14 -19 15 -10 0 10 5 7 16 -8 14 -21 41 -22
29 -1 -3 5 1 6 10 3 14 -6 14 -9 -2 -28 -18 -21 -18 -21 4 -3 19 17 22 54 3
42 -4 -3 -11 2 -14 11 -5 14 -9 14 -23 3 -15 -12 -16 -12 -9 6 4 11 4 17 1 13
-4 -3 -15 2 -25 12 -10 10 -27 17 -37 16 -10 -2 -22 2 -26 8 -5 6 -6 0 -3 -14z
m76 -45 c0 -5 -5 -3 -10 5 -5 8 -10 20 -10 25 0 6 5 3 10 -5 5 -8 10 -19 10
-25z m36 -15 c0 -12 -4 -16 -9 -11 -5 5 -6 14 -3 20 10 15 12 14 12 -9z"/>
<path d="M2559 4243 c0 -4 0 -44 1 -87 l1 -79 -49 -51 -50 -51 -4 -82 c-2 -59
0 -83 9 -83 8 0 10 22 6 81 l-5 81 55 57 56 56 2 79 c1 54 -2 81 -9 84 -7 2
-12 0 -13 -5z"/>
<path d="M2790 4212 c-8 -3 -18 -10 -22 -16 -13 -19 -9 -64 7 -70 12 -4 15
-29 15 -133 0 -124 -1 -128 -27 -155 -24 -25 -33 -28 -95 -28 l-68 0 0 -444
c0 -286 -4 -447 -10 -451 -17 -10 -11 -34 11 -46 44 -23 46 -9 38 366 -4 193
-6 361 -4 375 1 14 3 55 4 93 l1 67 53 0 c49 0 56 3 95 43 l42 43 0 127 c0
102 3 133 16 153 28 42 -9 91 -56 76z m30 -47 c0 -8 -4 -15 -9 -15 -13 0 -22
16 -14 24 11 11 23 6 23 -9z m-195 -1265 c3 -5 1 -10 -4 -10 -6 0 -11 5 -11
10 0 6 2 10 4 10 3 0 8 -4 11 -10z"/>
<path d="M3870 4200 l-25 -19 24 -23 c14 -13 19 -15 12 -6 -10 13 -10 21 -1
35 10 16 11 16 6 1 -6 -20 9 -34 19 -18 4 6 11 8 16 5 13 -9 11 7 -5 28 -16
21 -15 21 -46 -3z m34 -20 c-6 -6 -10 -3 -10 10 0 13 4 16 10 10 7 -7 7 -13 0
-20z"/>
<path d="M2248 4173 c13 -23 51 -24 63 -1 9 16 5 18 -31 18 -35 0 -40 -2 -32
-17z"/>
<path d="M3058 4163 c-16 -16 -28 -38 -28 -48 0 -16 5 -14 31 14 39 43 36 75
-3 34z"/>
<path d="M2443 4163 l-33 -4 0 -80 c0 -78 1 -80 23 -77 20 3 22 7 19 61 -4 61
-2 64 28 45 27 -17 61 13 44 40 -12 18 -30 22 -81 15z"/>
<path d="M1787 4154 c-12 -12 -8 -44 5 -44 6 0 22 -10 35 -22 22 -20 34 -22
157 -22 129 -1 135 -2 161 -26 22 -21 25 -30 20 -62 -6 -34 -5 -38 15 -38 19
0 20 4 14 38 -3 20 -17 52 -31 70 l-24 32 -138 0 c-147 0 -149 1 -176 53 -11
22 -27 31 -38 21z"/>
<path d="M2618 4155 c-3 -3 -3 -45 0 -92 4 -73 3 -87 -12 -95 -35 -19 -9 -88
34 -88 42 0 70 73 34 87 -14 5 -16 21 -13 97 4 85 3 91 -16 94 -12 2 -24 0
-27 -3z m32 -25 c0 -5 -4 -10 -10 -10 -5 0 -10 5 -10 10 0 6 5 10 10 10 6 0
10 -4 10 -10z m0 -100 c0 -5 -4 -10 -10 -10 -5 0 -10 5 -10 10 0 6 5 10 10 10
6 0 10 -4 10 -10z m0 -100 c0 -5 -4 -10 -10 -10 -5 0 -10 5 -10 10 0 6 5 10
10 10 6 0 10 -4 10 -10z"/>
<path d="M3825 4151 c3 -6 0 -11 -7 -11 -8 -1 -6 -6 6 -15 18 -14 36 -12 36 3
0 4 -9 13 -21 20 -12 8 -18 9 -14 3z"/>
<path d="M1313 4138 c-8 -15 9 -29 27 -23 10 3 66 6 124 7 118 1 136 -7 136
-54 0 -19 4 -28 13 -25 18 6 9 49 -16 74 -20 20 -34 22 -150 25 -71 2 -131 0
-134 -4z"/>
<path d="M2033 4138 c-10 -18 10 -24 62 -20 66 5 99 -15 89 -54 -5 -18 -2 -24
10 -24 13 0 15 6 10 28 -12 51 -40 70 -106 74 -33 1 -62 0 -65 -4z"/>
<path d="M2270 4140 c0 -5 5 -10 10 -10 6 0 10 5 10 10 0 6 -4 10 -10 10 -5 0
-10 -4 -10 -10z"/>
<path d="M1674 4115 c-8 -13 -13 -28 -10 -33 3 -5 -12 -27 -34 -48 -31 -30
-40 -47 -40 -72 0 -18 -4 -41 -9 -51 -13 -24 2 -43 30 -39 22 3 24 7 21 57 -3
47 0 57 24 82 18 18 38 29 56 29 18 0 33 8 44 25 15 23 15 27 0 50 -22 33 -60
33 -82 0z m56 -25 c0 -5 -4 -10 -10 -10 -5 0 -10 5 -10 10 0 6 5 10 10 10 6 0
10 -4 10 -10z m-110 -190 c0 -5 -4 -10 -10 -10 -5 0 -10 5 -10 10 0 6 5 10 10
10 6 0 10 -4 10 -10z"/>
<path d="M4600 4120 c0 -13 18 -14 118 -11 l118 3 31 -31 c17 -16 33 -37 37
-46 7 -19 37 -17 44 2 2 7 -5 16 -15 19 -10 4 -34 22 -53 40 l-35 32 -123 4
c-103 2 -122 1 -122 -12z"/>
<path d="M3058 4101 c-16 -16 -28 -37 -28 -47 0 -14 7 -11 31 15 16 18 29 40
27 47 -2 10 -12 5 -30 -15z"/>
<path d="M4314 4114 c-17 -14 -17 -15 -1 -10 11 3 16 2 12 -4 -3 -6 -2 -10 4
-10 5 0 13 5 16 10 3 6 1 10 -5 10 -6 0 -8 5 -5 10 9 14 2 12 -21 -6z"/>
<path d="M2850 4081 c0 -22 -3 -46 -6 -55 -4 -11 -1 -16 10 -16 13 0 15 8 9
45 -6 44 -5 45 21 45 14 0 26 5 26 10 0 6 -13 10 -30 10 -28 0 -30 -2 -30 -39z"/>
<path d="M3792 4106 c3 -4 -2 -16 -12 -26 -10 -10 -17 -27 -16 -37 2 -10 -2
-21 -8 -25 -7 -5 -5 -8 5 -8 17 0 60 29 44 30 -5 0 -3 5 5 10 13 8 13 10 1 10
-11 0 -10 4 4 14 18 13 18 14 -6 26 -13 7 -21 9 -17 6z m18 -26 c-8 -5 -19
-10 -25 -10 -5 0 -3 5 5 10 8 5 20 10 25 10 6 0 3 -5 -5 -10z m-13 -46 c-3 -3
-12 -4 -19 -1 -8 3 -5 6 6 6 11 1 17 -2 13 -5z"/>
<path d="M1490 4080 c-24 -24 -25 -38 -6 -65 9 -13 15 -63 18 -147 l5 -127
-44 -43 -43 -42 0 -177 c0 -163 1 -177 20 -194 12 -11 20 -31 20 -51 0 -58 54
-90 99 -57 55 42 26 130 -40 121 -51 -8 -57 10 -66 194 -4 91 -5 166 -2 165 4
-1 25 13 48 31 l41 33 0 138 c0 111 3 141 15 151 22 18 19 67 -4 80 -28 14
-38 13 -61 -10z m40 -30 c0 -5 -5 -10 -11 -10 -5 0 -7 5 -4 10 3 6 8 10 11 10
2 0 4 -4 4 -10z m10 -820 c0 -5 -7 -10 -15 -10 -8 0 -15 5 -15 10 0 6 7 10 15
10 8 0 15 -4 15 -10z"/>
<path d="M2248 4073 c13 -23 51 -24 63 -1 9 16 5 18 -31 18 -35 0 -40 -2 -32
-17z"/>
<path d="M4313 4078 c10 -5 22 -6 29 -2 6 4 8 3 4 -4 -3 -5 0 -13 6 -16 7 -3
2 -3 -11 0 -16 4 -21 3 -17 -5 4 -6 15 -11 24 -12 14 0 13 -2 -3 -8 -17 -7
-16 -9 9 -15 16 -4 31 -5 34 -1 3 3 -3 5 -14 5 -16 0 -17 2 -4 10 13 9 13 10
0 10 -13 0 -13 1 0 10 10 6 11 10 3 10 -7 0 -12 5 -10 12 1 7 -12 12 -32 14
-26 1 -31 0 -18 -8z"/>
<path d="M4640 4071 c0 -14 5 -19 15 -14 17 6 15 25 -3 31 -7 2 -12 -5 -12
-17z"/>
<path d="M4697 4083 c-12 -12 -7 -30 8 -30 8 0 15 9 15 19 0 18 -11 24 -23 11z"/>
<path d="M4747 4083 c-11 -10 -8 -20 8 -27 10 -4 15 1 15 14 0 20 -11 26 -23
13z"/>
<path d="M4794 4079 c-10 -17 13 -36 27 -22 12 12 4 33 -11 33 -5 0 -12 -5
-16 -11z"/>
<path d="M3577 4073 c-10 -9 -8 -43 2 -43 5 0 14 6 20 14 8 10 8 16 -2 25 -8
6 -17 8 -20 4z"/>
<path d="M1370 4061 l-35 -6 -1 -131 c-1 -73 -4 -148 -8 -168 -5 -28 -3 -38 9
-42 29 -11 34 9 24 91 -5 44 -6 113 -3 153 l7 73 39 -6 c37 -7 39 -6 36 16 -3
26 -16 30 -68 20z"/>
<path d="M3058 4041 c-16 -16 -28 -37 -28 -46 0 -13 8 -9 30 15 17 18 30 39
28 47 -2 9 -12 4 -30 -16z"/>
<path d="M2950 4045 c-10 -12 -10 -22 -3 -38 7 -15 11 -139 11 -327 l1 -303
-50 -59 c-34 -38 -59 -58 -73 -58 -36 0 -62 -35 -50 -68 18 -51 94 -38 94 16
0 19 18 44 60 87 l60 60 1 341 c1 188 -1 346 -5 353 -10 16 -31 14 -46 -4z
m-105 -835 c3 -5 -1 -10 -9 -10 -9 0 -16 5 -16 10 0 6 4 10 9 10 6 0 13 -4 16
-10z"/>
<path d="M2270 4040 c0 -5 5 -10 10 -10 6 0 10 5 10 10 0 6 -4 10 -10 10 -5 0
-10 -4 -10 -10z"/>
<path d="M2038 4015 c-9 -21 -8 -28 8 -46 16 -18 19 -37 19 -157 0 -76 -3
-162 -7 -193 -8 -59 2 -78 33 -59 11 7 11 15 1 43 -7 21 -12 91 -12 186 0 139
2 154 21 180 17 23 19 32 10 50 -17 30 -58 28 -73 -4z m42 -15 c0 -5 -5 -10
-11 -10 -5 0 -7 5 -4 10 3 6 8 10 11 10 2 0 4 -4 4 -10z"/>
<path d="M1970 4005 c0 -9 5 -15 11 -13 6 2 11 8 11 13 0 5 -5 11 -11 13 -6 2
-11 -4 -11 -13z"/>
<path d="M3081 4014 c0 -7 -12 -22 -26 -35 -13 -13 -25 -31 -25 -39 0 -9 11
-4 31 16 20 20 29 38 26 50 -3 11 -5 14 -6 8z"/>
<path d="M3573 3940 c0 -47 2 -66 4 -42 2 23 2 61 0 85 -2 23 -4 4 -4 -43z"/>
<path d="M1430 3995 c-7 -8 -19 -15 -26 -15 -8 0 -14 -7 -14 -15 0 -12 5 -11
30 3 16 9 30 23 30 30 0 16 -5 15 -20 -3z"/>
<path d="M2710 3996 c0 -9 7 -16 16 -16 9 0 14 5 12 12 -6 18 -28 21 -28 4z"/>
<path d="M3765 4000 c-13 -6 -15 -9 -5 -9 8 0 22 4 30 9 18 12 2 12 -25 0z"/>
<path d="M4337 3990 c4 -14 13 -20 32 -19 l26 1 -25 8 -25 8 24 1 c29 1 26 6
-11 15 -23 5 -25 3 -21 -14z"/>
<path d="M4676 3994 c-9 -8 -16 -24 -16 -34 0 -42 63 -67 90 -35 15 18 140 21
156 5 24 -24 65 19 44 45 -8 9 -34 11 -94 8 -67 -5 -88 -2 -107 11 -29 20 -53
20 -73 0z m44 -34 c0 -5 -4 -10 -10 -10 -5 0 -10 5 -10 10 0 6 5 10 10 10 6 0
10 -4 10 -10z m105 0 c3 -5 -1 -10 -10 -10 -9 0 -13 5 -10 10 3 6 8 10 10 10
2 0 7 -4 10 -10z m105 0 c0 -5 -5 -10 -11 -10 -5 0 -7 5 -4 10 3 6 8 10 11 10
2 0 4 -4 4 -10z"/>
<path d="M1723 3983 c-7 -3 -13 -11 -13 -19 0 -8 -4 -14 -10 -14 -6 0 -9 -46
-8 -122 l2 -123 5 112 c3 61 9 114 12 117 3 4 19 2 34 -4 26 -10 27 -13 21
-60 -6 -41 -4 -51 9 -57 26 -9 42 13 27 37 -6 11 -12 30 -12 44 0 13 -7 29
-15 36 -8 7 -15 20 -15 30 0 19 -17 30 -37 23z"/>
<path d="M2248 3973 c13 -23 51 -24 63 -1 9 16 5 18 -31 18 -35 0 -40 -2 -32
-17z"/>
<path d="M3760 3980 c-24 -8 -23 -8 8 -9 17 -1 32 4 32 9 0 11 -5 11 -40 0z"/>
<path d="M2419 3978 c-6 -25 -1 -168 6 -168 6 0 10 36 11 85 0 47 -3 85 -8 85
-4 0 -8 -1 -9 -2z"/>
<path d="M1411 3939 c-13 -11 -21 -22 -18 -25 7 -7 57 25 57 37 0 14 -13 10
-39 -12z"/>
<path d="M3058 3926 c-38 -47 -35 -68 3 -30 17 17 29 39 27 48 -2 12 -10 8
-30 -18z"/>
<path d="M3753 3953 c9 -2 25 -2 35 0 9 3 1 5 -18 5 -19 0 -27 -2 -17 -5z"/>
<path d="M4353 3953 c9 -2 23 -2 30 0 6 3 -1 5 -18 5 -16 0 -22 -2 -12 -5z"/>
<path d="M1842 3938 c-15 -15 -16 -45 -2 -53 6 -3 10 -50 10 -105 0 -101 6
-134 21 -124 5 3 9 54 9 115 0 66 4 109 10 109 17 0 12 57 -6 64 -22 8 -28 8
-42 -6z"/>
<path d="M2270 3940 c0 -5 5 -10 10 -10 6 0 10 5 10 10 0 6 -4 10 -10 10 -5 0
-10 -4 -10 -10z"/>
<path d="M2710 3935 c0 -8 7 -15 15 -15 8 0 15 7 15 15 0 8 -7 15 -15 15 -8 0
-15 -7 -15 -15z"/>
<path d="M3740 3936 c0 -2 11 -6 25 -8 14 -3 25 -1 25 3 0 5 -11 9 -25 9 -14
0 -25 -2 -25 -4z"/>
<path d="M4353 3933 c9 -2 25 -2 35 0 9 3 1 5 -18 5 -19 0 -27 -2 -17 -5z"/>
<path d="M1922 3918 c3 -8 20 -11 48 -9 39 2 42 1 37 -18 -6 -23 10 -38 24
-24 6 6 6 20 0 36 -10 24 -15 27 -62 27 -35 0 -49 -4 -47 -12z"/>
<path d="M1430 3905 c-7 -8 -19 -15 -26 -15 -8 0 -14 -7 -14 -17 0 -15 1 -15
18 0 10 10 24 17 30 17 7 0 12 7 12 15 0 8 -2 15 -4 15 -2 0 -9 -7 -16 -15z"/>
<path d="M2153 3909 c-29 -11 -38 -45 -19 -73 11 -18 15 -56 17 -151 l1 -127
-54 -60 -55 -61 -31 28 c-18 16 -32 36 -32 46 0 21 -24 31 -39 16 -18 -18 -13
-36 14 -43 14 -3 39 -23 56 -43 28 -34 31 -35 44 -18 7 10 15 17 17 15 2 -2
29 19 61 46 l57 50 0 137 c0 104 3 139 14 148 48 40 8 112 -51 90z m37 -43 c0
-11 -19 -15 -25 -6 -3 5 1 10 9 10 9 0 16 -2 16 -4z"/>
<path d="M3755 3910 c11 -5 27 -9 35 -9 13 -1 13 0 0 9 -8 5 -24 9 -35 9 l-20
0 20 -9z"/>
<path d="M2265 3885 c-32 -31 -32 -59 1 -92 19 -19 32 -24 54 -20 47 10 60
-16 60 -114 l0 -85 -45 -44 -45 -44 0 -114 c0 -87 -3 -117 -15 -128 -18 -18
-20 -55 -3 -72 7 -7 24 -12 38 -12 14 0 31 5 38 12 17 17 15 54 -3 72 -12 11
-15 41 -15 128 0 114 0 114 30 143 16 15 26 33 23 39 -3 6 -3 8 2 4 4 -4 14
-3 22 3 9 8 13 39 13 103 0 85 -2 94 -24 116 -19 17 -24 29 -19 51 4 21 -1 34
-20 53 -33 33 -61 33 -92 1z m55 -45 c0 -5 -4 -10 -10 -10 -5 0 -10 5 -10 10
0 6 5 10 10 10 6 0 10 -4 10 -10z m45 -309 c-3 -6 -16 -16 -28 -22 -21 -11
-21 -10 2 15 23 25 40 29 26 7z m-45 -321 c0 -5 -5 -10 -11 -10 -5 0 -7 5 -4
10 3 6 8 10 11 10 2 0 4 -4 4 -10z"/>
<path d="M3754 3884 c2 -10 11 -21 22 -25 27 -11 36 -10 29 1 -3 6 -16 10 -28
11 -20 1 -20 2 3 9 14 4 20 8 13 9 -6 1 -18 4 -26 7 -11 4 -15 0 -13 -12z"/>
<path d="M4453 3880 c3 -11 1 -23 -5 -26 -5 -3 -7 -12 -4 -20 3 -7 1 -16 -4
-19 -17 -10 -11 -35 8 -35 14 0 21 13 30 51 16 67 15 69 -9 69 -16 0 -20 -5
-16 -20z m27 0 c0 -5 -4 -10 -10 -10 -5 0 -10 5 -10 10 0 6 5 10 10 10 6 0 10
-4 10 -10z m-10 -40 c0 -5 -4 -10 -10 -10 -5 0 -10 5 -10 10 0 6 5 10 10 10 6
0 10 -4 10 -10z m-10 -40 c0 -5 -4 -10 -10 -10 -5 0 -10 5 -10 10 0 6 5 10 10
10 6 0 10 -4 10 -10z"/>
<path d="M4955 3884 c-10 -10 -13 -23 -9 -33 4 -9 9 -28 12 -43 l4 -28 -108 0
c-80 -1 -114 -5 -128 -15 -18 -13 -4 -15 126 -15 l145 0 6 67 c5 48 3 69 -6
75 -17 11 -24 10 -42 -8z m35 -24 c0 -5 -4 -10 -10 -10 -5 0 -10 5 -10 10 0 6
5 10 10 10 6 0 10 -4 10 -10z"/>
<path d="M1940 3875 c-9 -11 -10 -22 -3 -38 6 -12 11 -63 12 -112 2 -85 1 -92
-23 -114 -25 -24 -35 -61 -17 -61 5 0 23 12 40 26 31 26 31 26 31 129 0 57 5
115 11 129 13 27 -1 56 -26 56 -7 0 -18 -7 -25 -15z"/>
<path d="M2710 3875 c0 -8 7 -15 15 -15 8 0 15 7 15 15 0 8 -7 15 -15 15 -8 0
-15 -7 -15 -15z"/>
<path d="M1410 3850 c-14 -10 -22 -22 -18 -25 8 -8 58 24 58 36 0 14 -13 10
-40 -11z"/>
<path d="M2626 3861 c-19 -7 -18 -8 4 -14 26 -7 43 0 35 14 -7 10 -13 10 -39
0z"/>
<path d="M3650 3841 c0 -12 5 -21 11 -21 5 0 8 -4 5 -9 -7 -11 22 -71 34 -71
18 0 19 19 3 51 -10 19 -17 41 -18 49 0 24 -35 25 -35 1z m30 -1 c0 -5 -4 -10
-10 -10 -5 0 -10 5 -10 10 0 6 5 10 10 10 6 0 10 -4 10 -10z m10 -40 c0 -5 -4
-10 -10 -10 -5 0 -10 5 -10 10 0 6 5 10 10 10 6 0 10 -4 10 -10z m20 -40 c0
-5 -4 -10 -10 -10 -5 0 -10 5 -10 10 0 6 5 10 10 10 6 0 10 -4 10 -10z"/>
<path d="M4642 3830 c0 -19 2 -27 5 -17 2 9 2 25 0 35 -3 9 -5 1 -5 -18z"/>
<path d="M4660 3850 c0 -5 5 -10 10 -10 6 0 10 5 10 10 0 6 -4 10 -10 10 -5 0
-10 -4 -10 -10z"/>
<path d="M4692 3830 c0 -19 2 -27 5 -17 2 9 2 25 0 35 -3 9 -5 1 -5 -18z"/>
<path d="M4710 3850 c0 -5 5 -10 10 -10 6 0 10 5 10 10 0 6 -4 10 -10 10 -5 0
-10 -4 -10 -10z"/>
<path d="M4742 3830 c0 -19 2 -27 5 -17 2 9 2 25 0 35 -3 9 -5 1 -5 -18z"/>
<path d="M4772 3830 c0 -19 2 -27 5 -17 2 9 2 25 0 35 -3 9 -5 1 -5 -18z"/>
<path d="M4790 3850 c0 -5 5 -10 10 -10 6 0 10 5 10 10 0 6 -4 10 -10 10 -5 0
-10 -4 -10 -10z"/>
<path d="M4822 3830 c0 -19 2 -27 5 -17 2 9 2 25 0 35 -3 9 -5 1 -5 -18z"/>
<path d="M4840 3850 c0 -5 5 -10 10 -10 6 0 10 5 10 10 0 6 -4 10 -10 10 -5 0
-10 -4 -10 -10z"/>
<path d="M4872 3830 c0 -19 2 -27 5 -17 2 9 2 25 0 35 -3 9 -5 1 -5 -18z"/>
<path d="M4892 3830 c0 -16 4 -30 9 -30 5 0 9 14 9 30 0 17 -4 30 -8 30 -5 0
-9 -13 -10 -30z"/>
<path d="M3078 3843 c6 -2 9 -10 6 -15 -4 -7 -2 -8 5 -4 13 9 5 26 -12 25 -9
0 -8 -2 1 -6z"/>
<path d="M3585 3820 c15 -97 114 -235 213 -299 71 -46 74 -38 4 9 -100 67
-165 152 -204 268 -12 37 -17 45 -13 22z"/>
<path d="M3774 3843 c15 -4 16 -7 5 -14 -12 -7 -12 -9 1 -9 13 0 13 -1 0 -10
-11 -7 -11 -10 -2 -10 7 0 10 -4 7 -10 -9 -15 7 -12 29 5 11 8 14 15 7 15 -7
0 -10 4 -6 9 6 11 -26 32 -47 30 -7 -1 -4 -4 6 -6z"/>
<path d="M1560 3815 c0 -14 3 -25 8 -25 4 0 7 11 7 25 0 14 -3 25 -7 25 -5 0
-8 -11 -8 -25z"/>
<path d="M1590 3815 c0 -14 4 -25 9 -25 5 0 9 11 9 25 0 14 -4 25 -9 25 -5 0
-9 -11 -9 -25z"/>
<path d="M1623 3815 c0 -14 3 -25 8 -25 5 0 9 11 9 25 0 14 -4 25 -9 25 -5 0
-8 -11 -8 -25z"/>
<path d="M1655 3815 c0 -14 3 -25 8 -25 4 0 7 11 7 25 0 14 -3 25 -7 25 -5 0
-8 -11 -8 -25z"/>
<path d="M4323 3826 c3 -8 -1 -17 -9 -20 -9 -3 -12 -10 -9 -16 3 -5 2 -10 -4
-10 -6 0 -21 -16 -35 -36 -13 -19 -26 -36 -30 -36 -19 0 -46 -12 -46 -20 0 -5
-5 -6 -10 -3 -15 9 -23 -21 -11 -42 6 -11 11 -13 11 -5 0 7 4 11 10 7 5 -3 18
2 28 12 10 10 25 19 32 21 20 5 81 72 75 82 -3 5 4 11 15 15 11 4 18 11 15 16
-4 5 0 9 7 9 9 0 9 3 -2 10 -13 9 -13 10 0 10 13 0 13 1 0 10 -22 14 -43 12
-37 -4z m19 -23 c-6 -2 -10 -9 -7 -14 4 -5 -1 -6 -10 -2 -13 5 -14 7 -3 14 7
5 18 8 23 8 6 0 4 -3 -3 -6z m-25 -37 c0 -9 -6 -12 -16 -8 -14 5 -14 4 -1 -13
8 -10 10 -16 4 -12 -7 4 -15 0 -18 -9 -3 -8 -11 -12 -17 -8 -9 5 -6 11 6 21
11 7 15 13 9 13 -5 0 0 7 10 15 24 18 23 18 23 1z m-50 -71 c4 -4 3 -5 -4 -2
-6 4 -13 2 -15 -5 -3 -8 -6 -6 -10 4 -7 17 15 19 29 3z m-44 -23 c-5 -11 -7
-11 -14 0 -7 10 -9 8 -9 -6 0 -11 -3 -17 -6 -13 -10 10 3 34 19 34 9 0 13 -6
10 -15z m-46 -14 c-3 -8 -6 -5 -6 6 -1 11 2 17 5 13 3 -3 4 -12 1 -19z"/>
<path d="M1418 3812 c-16 -10 -28 -23 -28 -31 0 -11 4 -11 18 2 10 10 24 17
30 17 7 0 12 7 12 15 0 8 -1 15 -2 14 -2 0 -15 -8 -30 -17z"/>
<path d="M4666 3821 c-4 -7 -5 -15 -2 -18 9 -9 19 4 14 18 -4 11 -6 11 -12 0z"/>
<path d="M2010 3805 c0 -8 7 -15 15 -15 8 0 15 7 15 15 0 8 -7 15 -15 15 -8 0
-15 -7 -15 -15z"/>
<path d="M3038 3718 c-2 -57 -5 -209 -6 -338 l-3 -236 26 -24 c20 -19 24 -30
20 -52 -5 -21 -1 -33 19 -53 32 -32 60 -32 91 0 32 31 32 59 -1 92 -20 20 -32
24 -54 19 -58 -11 -60 2 -61 359 -1 197 -4 310 -10 295 -8 -23 -8 -22 -5 8 1
17 -1 32 -5 32 -4 0 -9 -46 -11 -102z m117 -658 c3 -5 -1 -10 -9 -10 -9 0 -16
5 -16 10 0 6 4 10 9 10 6 0 13 -4 16 -10z"/>
<path d="M4710 3810 c0 -5 5 -10 10 -10 6 0 10 5 10 10 0 6 -4 10 -10 10 -5 0
-10 -4 -10 -10z"/>
<path d="M4790 3810 c0 -5 5 -10 10 -10 6 0 10 5 10 10 0 6 -4 10 -10 10 -5 0
-10 -4 -10 -10z"/>
<path d="M4840 3810 c0 -5 5 -10 10 -10 6 0 10 5 10 10 0 6 -4 10 -10 10 -5 0
-10 -4 -10 -10z"/>
<path d="M1750 3768 c-26 -33 -45 -128 -25 -128 6 0 9 19 6 47 -3 43 -1 48 35
79 22 19 32 33 24 33 -8 0 -26 -14 -40 -31z"/>
<path d="M2870 3770 c0 -13 7 -20 20 -20 13 0 20 7 20 20 0 13 -7 20 -20 20
-13 0 -20 -7 -20 -20z"/>
<path d="M1783 3740 c-33 -39 -46 -100 -22 -100 8 0 10 12 6 35 -5 31 -2 38
29 63 19 15 34 30 34 35 0 16 -17 5 -47 -33z"/>
<path d="M4605 3739 c-36 -35 -45 -39 -93 -39 -29 0 -61 6 -72 12 -26 17 -55
-10 -45 -41 7 -22 48 -30 60 -11 3 6 35 10 69 10 62 0 65 1 100 40 20 22 45
40 56 40 27 0 15 25 -13 27 -13 0 -38 -15 -62 -38z m-165 -53 c0 -3 -4 -8 -10
-11 -5 -3 -10 -1 -10 4 0 6 5 11 10 11 6 0 10 -2 10 -4z"/>
<path d="M2010 3755 c0 -8 7 -15 15 -15 8 0 15 7 15 15 0 8 -7 15 -15 15 -8 0
-15 -7 -15 -15z"/>
<path d="M2467 3744 c-8 -8 1 -24 14 -24 5 0 9 7 9 15 0 15 -12 20 -23 9z"/>
<path d="M2662 3720 c0 -19 2 -27 5 -17 2 9 2 25 0 35 -3 9 -5 1 -5 -18z"/>
<path d="M2692 3720 c0 -19 2 -27 5 -17 2 9 2 25 0 35 -3 9 -5 1 -5 -18z"/>
<path d="M2720 3720 c0 -16 4 -30 8 -30 5 0 9 14 9 30 0 17 -4 30 -9 30 -4 0
-8 -13 -8 -30z"/>
<path d="M2752 3720 c0 -16 4 -30 9 -30 5 0 9 14 9 30 0 17 -4 30 -8 30 -5 0
-9 -13 -10 -30z"/>
<path d="M2872 3723 c5 -26 38 -29 38 -4 0 15 -6 21 -21 21 -14 0 -19 -5 -17
-17z"/>
<path d="M3885 3703 c-10 -15 -15 -25 -11 -21 4 3 16 -2 27 -13 11 -11 24 -17
29 -14 6 4 10 0 10 -7 0 -9 3 -9 10 2 8 12 10 12 11 -5 l0 -20 9 20 9 20 1
-20 c1 -11 4 -15 6 -8 7 16 -15 55 -27 48 -5 -4 -9 -1 -9 4 0 6 -7 11 -15 11
-7 0 -18 7 -23 16 -7 13 -12 11 -27 -13z m53 -25 c3 2 7 -1 9 -8 1 -7 0 -6 -4
1 -4 8 -8 7 -14 -2 -7 -11 -9 -11 -9 -1 0 7 -4 10 -10 7 -6 -4 -7 1 -3 11 5
13 3 15 -7 9 -9 -6 -11 -4 -5 5 6 10 11 9 22 -6 8 -10 17 -18 21 -16z"/>
<path d="M4642 3698 c-19 -16 -31 -32 -28 -35 3 -4 20 8 38 25 40 42 33 49
-10 10z"/>
<path d="M4691 3699 c-18 -17 -30 -33 -27 -36 3 -3 19 9 37 26 17 18 29 34 27
37 -3 2 -19 -10 -37 -27z"/>
<path d="M4740 3700 c-18 -16 -31 -33 -27 -36 3 -4 20 8 38 25 17 18 29 34 27
36 -3 3 -20 -9 -38 -25z"/>
<path d="M4790 3700 c-18 -16 -31 -33 -27 -36 3 -4 20 8 38 25 17 18 29 34 27
36 -3 3 -20 -9 -38 -25z"/>
<path d="M4834 3695 c-21 -19 -33 -35 -26 -35 15 0 77 58 70 65 -3 3 -22 -11
-44 -30z"/>
<path d="M4881 3694 c-19 -19 -28 -34 -22 -34 12 0 71 53 71 64 0 13 -17 3
-49 -30z"/>
<path d="M4930 3695 c-19 -19 -29 -35 -23 -35 12 0 73 54 73 64 0 13 -17 3
-50 -29z"/>
<path d="M4981 3695 c-19 -19 -29 -35 -23 -35 10 0 72 57 72 66 0 12 -19 0
-49 -31z"/>
<path d="M5031 3695 c-19 -19 -29 -35 -23 -35 10 0 72 57 72 66 0 12 -19 0
-49 -31z"/>
<path d="M2010 3705 c0 -8 7 -15 15 -15 8 0 15 7 15 15 0 8 -7 15 -15 15 -8 0
-15 -7 -15 -15z"/>
<path d="M3720 3695 c0 -9 7 -18 15 -21 8 -4 15 -12 15 -20 0 -8 7 -14 15 -14
8 0 15 -6 15 -12 0 -7 10 -18 23 -24 21 -9 23 -8 19 18 -2 15 -8 28 -13 28
-12 0 -49 38 -49 50 0 6 -9 10 -20 10 -11 0 -20 -7 -20 -15z m30 -5 c0 -5 -4
-10 -10 -10 -5 0 -10 5 -10 10 0 6 5 10 10 10 6 0 10 -4 10 -10z m30 -30 c0
-5 -4 -10 -10 -10 -5 0 -10 5 -10 10 0 6 5 10 10 10 6 0 10 -4 10 -10z m30
-30 c0 -5 -4 -10 -10 -10 -5 0 -10 5 -10 10 0 6 5 10 10 10 6 0 10 -4 10 -10z"/>
<path d="M1692 3669 c-1 -22 -10 -43 -23 -55 -20 -18 -20 -18 -13 10 5 22 4
27 -7 24 -8 -3 -13 -11 -11 -18 2 -7 -4 -20 -13 -30 -9 -9 -13 -24 -9 -34 3
-9 1 -30 -6 -47 -13 -30 -12 -32 46 -90 32 -32 62 -59 66 -59 4 0 8 22 8 49 0
57 15 74 61 69 18 -2 34 2 36 9 5 13 -75 6 -94 -9 -7 -5 -14 -26 -16 -46 l-4
-37 -1 42 c-2 35 3 45 29 68 17 14 28 29 25 33 -11 10 -60 -58 -67 -93 -6 -27
-6 -26 -8 12 -1 37 3 46 34 70 38 30 47 68 18 77 -10 3 6 4 35 2 34 -2 51 1
49 7 -5 17 -109 8 -129 -10 -19 -17 -25 -4 -7 14 6 6 9 26 6 44 l-4 34 -1 -36z
m-2 -94 c-26 -28 -41 -26 -19 2 11 15 10 15 -9 -1 -15 -13 -23 -31 -24 -60
l-1 -41 -4 39 c-3 21 0 43 6 49 17 17 13 31 -4 17 -10 -9 -15 -9 -15 -1 0 12
2 13 42 15 15 1 30 5 34 9 4 4 10 5 12 2 3 -3 -5 -16 -18 -30z m60 7 c0 -4
-16 -23 -34 -41 -24 -24 -36 -45 -39 -70 -3 -28 -4 -24 -5 17 -2 46 1 56 26
77 27 24 52 32 52 17z m-93 -99 c-2 -16 -4 -5 -4 22 0 28 2 40 4 28 2 -13 2
-35 0 -50z"/>
<path d="M2467 3694 c-8 -8 1 -24 14 -24 5 0 9 7 9 15 0 15 -12 20 -23 9z"/>
<path d="M2527 3677 c-13 -10 -14 -29 -7 -127 5 -63 9 -132 9 -153 1 -23 5
-36 11 -32 6 3 10 1 10 -4 0 -6 -4 -11 -9 -11 -5 0 -12 -48 -16 -107 -7 -93
-11 -112 -31 -136 -41 -49 -9 -65 38 -20 l28 27 0 249 c0 146 4 256 10 267 19
35 -13 70 -43 47z m23 -27 c0 -5 -2 -10 -4 -10 -3 0 -8 5 -11 10 -3 6 -1 10 4
10 6 0 11 -4 11 -10z"/>
<path d="M2872 3673 c5 -26 38 -29 38 -4 0 15 -6 21 -21 21 -14 0 -19 -5 -17
-17z"/>
<path d="M3996 3653 c9 -38 14 -42 14 -10 0 14 -5 29 -10 32 -7 4 -8 -3 -4
-22z"/>
<path d="M5090 3660 c-26 -26 -25 -32 5 -68 30 -36 146 -318 139 -337 -3 -7
-47 -31 -98 -53 -78 -33 -99 -39 -142 -35 -56 6 -70 -4 -80 -53 -7 -35 18 -70
56 -79 30 -7 80 26 80 53 0 12 31 31 102 62 64 29 109 56 122 73 24 33 22 41
-53 232 -28 71 -51 144 -51 161 0 34 -21 64 -46 64 -8 0 -23 -9 -34 -20z m40
-30 c0 -5 -5 -10 -11 -10 -5 0 -7 5 -4 10 3 6 8 10 11 10 2 0 4 -4 4 -10z
m-138 -525 c0 -5 -5 -11 -11 -13 -6 -2 -11 4 -11 13 0 9 5 15 11 13 6 -2 11
-8 11 -13z"/>
<path d="M2010 3655 c0 -8 7 -15 15 -15 8 0 15 7 15 15 0 8 -7 15 -15 15 -8 0
-15 -7 -15 -15z"/>
<path d="M4021 3648 c-1 -25 2 -28 33 -28 30 0 33 2 28 25 -2 14 -9 25 -14 25
-5 0 -6 -9 -3 -20 9 -27 -3 -25 -15 3 -9 22 -9 22 -10 -3 l-2 -25 -8 25 -8 25
-1 -27z"/>
<path d="M4125 3635 c3 -22 6 -49 8 -60 1 -12 -4 -21 -13 -21 -8 -1 -19 -3
-25 -4 -5 -1 -16 -3 -24 -4 -8 0 -16 -7 -19 -15 -3 -10 1 -12 17 -8 11 3 24 1
27 -4 6 -10 53 -2 68 12 5 4 14 5 21 3 14 -6 39 21 33 36 -2 6 -14 4 -31 -5
-32 -16 -29 -19 -53 62 -14 47 -14 47 -9 8z m75 -85 c0 -5 -4 -10 -10 -10 -5
0 -10 5 -10 10 0 6 5 10 10 10 6 0 10 -4 10 -10z m-40 -10 c0 -5 -4 -10 -10
-10 -5 0 -10 5 -10 10 0 6 5 10 10 10 6 0 10 -4 10 -10z m-40 -4 c0 -3 -4 -8
-10 -11 -5 -3 -10 -1 -10 4 0 6 5 11 10 11 6 0 10 -2 10 -4z"/>
<path d="M2470 3635 c0 -8 5 -15 10 -15 6 0 10 7 10 15 0 8 -4 15 -10 15 -5 0
-10 -7 -10 -15z"/>
<path d="M2870 3627 c0 -7 -27 -39 -60 -72 -42 -42 -60 -67 -60 -85 0 -17 -14
-39 -40 -65 l-41 -40 6 -75 c3 -41 2 -118 -3 -170 -9 -96 -2 -121 25 -98 9 7
10 16 3 28 -6 10 -10 83 -10 162 l0 144 30 29 30 29 0 -124 c0 -97 -3 -127
-15 -140 -27 -30 10 -75 41 -49 16 13 18 45 4 54 -6 4 -10 72 -10 170 l0 164
53 50 c28 28 59 51 68 51 18 0 33 26 23 41 -8 14 -44 11 -44 -4z"/>
<path d="M1857 3613 c-4 -3 -7 -52 -7 -108 0 -59 -4 -105 -11 -112 -6 -6 -9
-21 -7 -34 2 -19 9 -24 33 -24 24 0 31 5 33 24 2 13 -1 28 -7 34 -7 7 -11 55
-11 119 0 99 -5 120 -23 101z m18 -243 c3 -5 1 -10 -4 -10 -6 0 -11 5 -11 10
0 6 2 10 4 10 3 0 8 -4 11 -10z"/>
<path d="M2015 3610 c4 -6 11 -8 16 -5 14 9 11 15 -7 15 -8 0 -12 -5 -9 -10z"/>
<path d="M3840 3605 c0 -8 4 -15 10 -15 5 0 7 7 4 15 -4 8 -8 15 -10 15 -2 0
-4 -7 -4 -15z"/>
<path d="M5005 3610 c-4 -7 -3 -16 3 -22 14 -14 45 -2 40 15 -6 16 -34 21 -43
7z"/>
<path d="M2467 3594 c-8 -8 1 -24 14 -24 5 0 9 7 9 15 0 15 -12 20 -23 9z"/>
<path d="M3877 3581 c12 -32 25 -42 39 -30 17 14 4 34 -26 42 -14 4 -17 1 -13
-12z m33 -11 c0 -5 -5 -10 -11 -10 -5 0 -7 5 -4 10 3 6 8 10 11 10 2 0 4 -4 4
-10z"/>
<path d="M2893 3553 c-20 -4 -23 -11 -23 -54 0 -27 5 -49 10 -49 6 0 10 20 10
45 0 40 2 45 21 42 12 -1 24 4 26 11 5 12 -3 13 -44 5z"/>
<path d="M2467 3544 c-8 -8 1 -24 14 -24 5 0 9 7 9 15 0 15 -12 20 -23 9z"/>
<path d="M4010 3535 c0 -8 7 -15 15 -15 8 0 15 7 15 15 0 8 -7 15 -15 15 -8 0
-15 -7 -15 -15z"/>
<path d="M1557 3534 c-10 -10 5 -38 41 -76 32 -33 34 -41 30 -82 l-6 -46 52 0
c29 0 57 -5 64 -12 8 -8 12 -57 12 -155 0 -79 3 -143 8 -143 4 0 6 66 4 147
-4 174 -10 187 -79 181 l-43 -3 0 40 c0 34 -6 47 -36 76 -22 21 -33 41 -30 51
4 18 -7 32 -17 22z"/>
<path d="M2680 3524 c0 -8 5 -12 10 -9 6 3 10 10 10 16 0 5 -4 9 -10 9 -5 0
-10 -7 -10 -16z"/>
<path d="M2839 3534 c-1 -5 0 -49 1 -97 2 -87 1 -88 -21 -85 -17 2 -25 -3 -27
-16 -3 -16 0 -18 24 -12 16 4 30 8 31 9 5 6 6 198 0 203 -4 4 -7 3 -8 -2z"/>
<path d="M2207 3505 c-4 -8 -2 -17 3 -20 6 -4 10 -46 10 -96 l0 -89 -77 0 -78
0 -2 -198 c-2 -124 -7 -205 -14 -219 -16 -30 -5 -53 25 -53 32 0 44 34 22 59
-13 15 -16 48 -16 204 l0 187 80 0 80 0 0 98 c0 59 4 102 11 109 6 6 8 16 5
22 -10 16 -43 13 -49 -4z"/>
<path d="M4670 3505 c0 -8 7 -15 15 -15 8 0 15 7 15 15 0 8 -7 15 -15 15 -8 0
-15 -7 -15 -15z"/>
<path d="M4720 3505 c0 -8 7 -15 15 -15 8 0 15 7 15 15 0 8 -7 15 -15 15 -8 0
-15 -7 -15 -15z"/>
<path d="M4770 3504 c0 -17 22 -14 28 4 2 7 -3 12 -12 12 -9 0 -16 -7 -16 -16z"/>
<path d="M4820 3504 c0 -17 22 -14 28 4 2 7 -3 12 -12 12 -9 0 -16 -7 -16 -16z"/>
<path d="M4870 3504 c0 -9 5 -14 12 -12 18 6 21 28 4 28 -9 0 -16 -7 -16 -16z"/>
<path d="M4920 3504 c0 -9 5 -14 12 -12 18 6 21 28 4 28 -9 0 -16 -7 -16 -16z"/>
<path d="M4970 3504 c0 -9 5 -14 12 -12 18 6 21 28 4 28 -9 0 -16 -7 -16 -16z"/>
<path d="M5020 3505 c0 -9 5 -15 11 -13 6 2 11 8 11 13 0 5 -5 11 -11 13 -6 2
-11 -4 -11 -13z"/>
<path d="M4540 3490 c-23 -23 -25 -38 -6 -65 16 -24 30 -263 17 -284 -5 -8 -7
-20 -4 -28 4 -11 9 -11 24 3 17 15 19 33 19 150 0 104 3 136 15 148 22 21 19
73 -4 86 -28 14 -38 13 -61 -10z m45 -30 c3 -5 -1 -10 -10 -10 -9 0 -13 5 -10
10 3 6 8 10 10 10 2 0 7 -4 10 -10z"/>
<path d="M1530 3488 c0 -7 14 -22 30 -33 27 -18 30 -25 30 -72 0 -29 4 -53 10
-53 19 0 -2 104 -29 137 -28 34 -41 41 -41 21z"/>
<path d="M2660 3493 c0 -5 7 -16 15 -26 13 -18 14 -18 24 2 15 28 14 31 -14
31 -14 0 -25 -3 -25 -7z"/>
<path d="M3880 3480 c8 -5 20 -10 25 -10 6 0 3 5 -5 10 -8 5 -19 10 -25 10 -5
0 -3 -5 5 -10z"/>
<path d="M2155 3461 c-3 -10 -48 -60 -100 -110 l-95 -92 0 -214 c0 -146 -3
-215 -11 -215 -6 0 -9 -12 -7 -27 2 -22 8 -28 28 -28 20 0 26 6 28 28 2 15 -1
27 -7 27 -8 0 -11 69 -11 213 l0 213 92 85 c50 46 99 87 110 91 25 10 24 48
-1 48 -11 0 -22 -8 -26 -19z"/>
<path d="M1740 3445 c0 -23 4 -25 44 -25 40 0 44 2 44 25 0 23 -4 25 -44 25
-40 0 -44 -2 -44 -25z m43 -2 c-7 -2 -19 -2 -25 0 -7 3 -2 5 12 5 14 0 19 -2
13 -5z"/>
<path d="M3928 3463 c7 -3 16 -2 19 1 4 3 -2 6 -13 5 -11 0 -14 -3 -6 -6z"/>
<path d="M1927 3444 c3 -7 9 -14 14 -14 14 0 10 17 -5 23 -10 4 -13 1 -9 -9z"/>
<path d="M3968 3453 c7 -3 16 -2 19 1 4 3 -2 6 -13 5 -11 0 -14 -3 -6 -6z"/>
<path d="M4158 3453 c7 -3 16 -2 19 1 4 3 -2 6 -13 5 -11 0 -14 -3 -6 -6z"/>
<path d="M4038 3443 c18 -2 45 -2 60 0 15 2 0 4 -33 4 -33 0 -45 -2 -27 -4z"/>
<path d="M4440 3438 c0 -8 -19 -33 -43 -56 -34 -34 -50 -42 -79 -42 -30 0 -47
-10 -104 -63 -38 -35 -77 -66 -87 -70 -23 -8 -18 -40 6 -45 10 -2 20 5 25 16
4 11 35 49 68 86 58 62 64 66 106 66 38 0 49 5 83 40 21 22 45 40 53 40 19 0
10 34 -11 38 -9 2 -17 -3 -17 -10z"/>
<path d="M4793 3413 c-23 -4 -23 -7 -23 -144 0 -98 3 -139 11 -139 9 0 10 23
5 79 -9 108 1 191 23 188 9 -1 17 2 19 8 4 11 -5 14 -35 8z"/>
<path d="M4965 3410 c-3 -5 -3 -25 1 -45 6 -34 -2 -44 -21 -26 -6 4 -27 11
-47 14 -32 5 -38 3 -38 -12 0 -14 9 -17 47 -17 43 1 48 -2 57 -27 7 -20 7 -34
-2 -47 -18 -29 -15 -48 9 -55 33 -11 45 9 31 48 -14 40 -15 81 -3 124 11 39
-15 73 -34 43z"/>
<path d="M2390 3390 c-24 -24 -25 -39 -5 -66 11 -14 14 -51 15 -149 l0 -129
-31 -32 -32 -33 -33 25 c-17 14 -40 41 -49 59 -10 22 -23 35 -35 35 -29 0 -26
-38 3 -49 12 -5 39 -26 60 -47 l37 -39 -95 -95 -94 -95 -9 -385 c-7 -333 -6
-387 6 -397 23 -19 56 3 46 30 -5 12 -10 182 -11 377 l-3 355 140 140 140 140
0 136 c0 109 3 139 15 149 22 18 19 67 -4 80 -28 14 -38 13 -61 -10z m40 -30
c0 -5 -5 -10 -11 -10 -5 0 -7 5 -4 10 3 6 8 10 11 10 2 0 4 -4 4 -10z"/>
<path d="M1943 3341 l-62 -57 -7 -165 c-4 -90 -8 -177 -8 -194 -1 -25 3 -30
26 -33 19 -2 28 2 33 17 3 12 3 25 0 31 -4 6 -9 79 -12 163 l-5 152 55 61 c74
81 60 99 -20 25z"/>
<path d="M3118 3394 c-4 -3 -2 -19 4 -35 9 -25 7 -83 -3 -144 -3 -15 1 -20 16
-20 15 0 19 5 16 20 -5 26 -5 134 0 160 4 19 -20 33 -33 19z"/>
<path d="M3185 3295 c0 -89 2 -105 15 -102 8 1 14 11 12 22 -4 27 -4 136 0
160 2 11 -3 21 -12 22 -13 3 -15 -13 -15 -102z"/>
<path d="M3246 3298 c1 -81 4 -103 15 -103 9 0 13 9 12 25 -6 71 -6 108 0 143
7 32 5 37 -10 37 -16 0 -18 -10 -17 -102z"/>
<path d="M3306 3298 c1 -77 4 -103 14 -103 10 0 13 26 14 103 1 84 -2 102 -14
102 -12 0 -15 -18 -14 -102z"/>
<path d="M2147 3384 c-4 -4 -7 -16 -7 -26 0 -13 8 -18 31 -18 26 0 30 3 27 23
-3 22 -36 36 -51 21z"/>
<path d="M4410 3335 c-40 -48 -49 -54 -85 -55 -35 0 -49 -9 -105 -61 -36 -33
-75 -64 -88 -70 -27 -10 -26 -42 1 -47 10 -2 20 5 26 20 5 13 39 52 74 87 61
59 68 63 100 58 30 -5 39 -1 68 30 19 19 44 39 57 44 14 5 22 16 20 26 -6 31
-23 23 -68 -32z"/>
<path d="M4642 3288 l3 -62 35 0 35 -1 -1 60 0 60 -38 2 -37 2 3 -61z m48 32
c0 -5 -4 -10 -10 -10 -5 0 -10 5 -10 10 0 6 5 10 10 10 6 0 10 -4 10 -10z m0
-30 c0 -5 -4 -10 -10 -10 -5 0 -10 5 -10 10 0 6 5 10 10 10 6 0 10 -4 10 -10z
m-5 -30 c3 -5 1 -10 -4 -10 -6 0 -11 5 -11 10 0 6 2 10 4 10 3 0 8 -4 11 -10z"/>
<path d="M4437 3308 c-45 -65 -74 -88 -113 -88 -33 0 -46 -8 -110 -70 -39 -38
-79 -70 -88 -70 -9 0 -16 -8 -16 -20 0 -28 38 -26 50 3 5 12 36 49 69 81 54
54 63 60 98 58 33 -2 44 3 73 34 19 20 45 40 58 45 14 5 22 16 20 26 -5 26
-24 26 -41 1z"/>
<path d="M4889 3257 c-27 -33 -48 -137 -29 -137 6 0 10 22 10 49 0 42 4 53 30
74 17 14 30 30 30 36 0 19 -14 11 -41 -22z"/>
<path d="M1796 3263 c-3 -3 -6 -17 -6 -30 0 -19 5 -23 31 -23 27 0 30 3 27 27
-3 25 -36 42 -52 26z"/>
<path d="M2110 3240 c0 -13 5 -20 13 -17 6 2 12 10 12 17 0 7 -6 15 -12 18 -8
2 -13 -5 -13 -18z"/>
<path d="M2155 3250 c-7 -12 2 -30 16 -30 12 0 12 27 0 35 -5 3 -12 1 -16 -5z"/>
<path d="M4440 3250 c0 -5 -16 -28 -36 -50 -31 -34 -42 -40 -76 -40 -36 0 -48
-7 -112 -68 -39 -38 -79 -72 -88 -75 -21 -7 -24 -33 -5 -40 16 -6 32 3 38 20
2 6 30 41 62 77 55 62 61 66 101 66 35 0 48 6 77 36 18 20 44 40 57 45 27 11
29 39 2 39 -11 0 -20 -4 -20 -10z"/>
<path d="M2200 3235 c0 -8 7 -15 15 -15 8 0 15 7 15 15 0 8 -7 15 -15 15 -8 0
-15 -7 -15 -15z"/>
<path d="M2912 3238 c-16 -16 -15 -33 3 -48 12 -10 15 -36 15 -116 l0 -103
-53 -46 -54 -46 -7 -215 c-4 -118 -9 -228 -13 -245 -5 -28 -4 -30 18 -27 19 2
24 8 22 28 -1 14 -5 120 -9 235 l-6 210 60 50 61 50 0 103 c1 63 6 110 13 122
22 35 -21 77 -50 48z"/>
<path d="M3432 3209 c2 -6 8 -10 13 -10 5 0 11 4 13 10 2 6 -4 11 -13 11 -9 0
-15 -5 -13 -11z"/>
<path d="M3495 3210 c-3 -5 1 -10 9 -10 9 0 16 5 16 10 0 6 -4 10 -9 10 -6 0
-13 -4 -16 -10z"/>
<path d="M3560 3210 c0 -5 7 -10 15 -10 8 0 15 5 15 10 0 6 -7 10 -15 10 -8 0
-15 -4 -15 -10z"/>
<path d="M4644 3188 c3 -13 6 -53 6 -90 l0 -68 95 0 c52 0 95 -4 95 -9 0 -14
-158 -23 -220 -12 -30 5 -58 7 -62 5 -4 -3 -6 -21 -5 -42 l2 -37 60 5 c76 6
126 6 195 0 l55 -5 2 60 2 61 -101 -4 -101 -4 5 81 c4 75 3 81 -15 81 -15 0
-18 -5 -13 -22z m186 -213 c0 -11 -213 -20 -238 -10 -7 2 -10 10 -7 15 9 14
245 9 245 -5z"/>
<path d="M4729 3203 c-1 -4 0 -32 1 -61 2 -52 2 -53 -24 -46 -20 5 -26 2 -26
-11 0 -14 5 -16 27 -10 16 4 28 7 29 8 7 11 10 118 3 122 -5 4 -10 3 -10 -2z"/>
<path d="M4440 3188 c0 -8 -19 -33 -43 -56 -36 -35 -49 -42 -83 -42 -35 0 -46
-7 -99 -61 -33 -33 -70 -65 -83 -70 -15 -6 -22 -16 -20 -26 5 -25 37 -28 46
-5 4 10 34 49 67 85 57 64 62 67 105 67 40 0 51 5 85 40 21 22 45 40 53 40 19
0 10 34 -11 38 -9 2 -17 -3 -17 -10z"/>
<path d="M1790 3145 c0 -21 5 -25 30 -25 25 0 30 4 30 25 0 21 -5 25 -30 25
-25 0 -30 -4 -30 -25z"/>
<path d="M3230 3140 l0 -30 185 0 185 0 0 30 0 30 -185 0 -185 0 0 -30z m205
0 c0 -7 -6 -15 -12 -17 -8 -3 -13 4 -13 17 0 13 5 20 13 18 6 -3 12 -11 12
-18z"/>
<path d="M1573 3145 c-38 -16 -53 -42 -53 -90 0 -42 44 -95 79 -95 13 0 42
-27 82 -77 76 -95 167 -200 231 -270 l48 -52 0 -345 c0 -341 0 -345 -21 -360
-37 -26 -59 -68 -59 -116 0 -167 234 -190 274 -27 11 45 -11 103 -49 134 l-35
28 0 363 0 364 -54 56 c-79 84 -114 125 -215 251 -74 94 -91 121 -91 148 0 47
-16 72 -55 89 -41 17 -42 17 -82 -1z m57 -90 c0 -8 -7 -15 -15 -15 -8 0 -15 7
-15 15 0 8 7 15 15 15 8 0 15 -7 15 -15z m420 -1329 c0 -5 -3 -6 -7 -3 -3 4
-12 2 -19 -4 -19 -16 -30 16 -13 37 12 14 14 14 26 -2 7 -10 13 -22 13 -28z"/>
<path d="M3768 3104 l5 -55 -27 7 c-20 5 -26 2 -26 -10 0 -11 9 -16 30 -16 29
0 30 2 30 43 0 23 3 52 6 65 5 15 2 22 -8 22 -12 0 -14 -12 -10 -56z"/>
<path d="M3897 3104 l6 -57 -26 7 c-20 5 -27 3 -27 -9 0 -18 49 -21 55 -2 2 6
5 36 8 65 3 38 1 52 -9 52 -9 0 -11 -14 -7 -56z"/>
<path d="M4440 3130 c0 -6 -19 -31 -41 -55 -34 -37 -48 -45 -78 -45 -30 0 -47
-10 -106 -63 -38 -35 -78 -66 -88 -70 -23 -8 -18 -40 6 -45 10 -2 20 5 25 17
4 11 36 49 71 85 57 60 67 66 103 66 33 0 48 7 83 39 23 21 48 40 55 43 18 6
5 38 -15 38 -8 0 -15 -5 -15 -10z"/>
<path d="M4806 3114 c6 -25 5 -26 -20 -20 -20 5 -26 3 -26 -10 0 -13 6 -15 27
-9 33 8 29 4 37 38 5 20 3 27 -9 27 -12 0 -14 -6 -9 -26z"/>
<path d="M2812 3104 c-25 -17 -29 -56 -7 -74 8 -7 15 -18 15 -24 0 -6 -33 -44
-74 -85 l-73 -73 -1 -1065 c0 -1040 -1 -1065 -20 -1086 -27 -31 -34 -55 -20
-80 15 -30 27 -37 65 -37 60 0 84 72 38 114 l-25 23 0 1054 0 1055 75 74 c47
47 75 83 75 96 0 12 7 27 15 34 21 17 19 46 -5 70 -24 24 -29 24 -58 4z m38
-39 c0 -8 -4 -15 -10 -15 -5 0 -10 7 -10 15 0 8 5 15 10 15 6 0 10 -7 10 -15z
m-153 -1242 c-2 -21 -4 -6 -4 32 0 39 2 55 4 38 2 -18 2 -50 0 -70z m4 -1186
c-13 -13 -26 -3 -16 12 3 6 11 8 17 5 6 -4 6 -10 -1 -17z"/>
<path d="M3817 3113 c-12 -20 -11 -77 1 -81 10 -3 13 5 10 29 -3 30 0 34 21
34 14 0 26 6 29 13 4 13 -53 18 -61 5z"/>
<path d="M3940 3098 c0 -13 -3 -33 -6 -45 -5 -17 -2 -23 9 -23 12 0 15 8 10
36 -6 36 -5 37 20 30 20 -5 27 -3 27 9 0 10 -10 15 -30 15 -24 0 -30 -4 -30
-22z"/>
<path d="M4492 3084 c-21 -14 -22 -23 -22 -133 0 -105 2 -120 20 -136 13 -12
20 -31 20 -55 0 -41 11 -55 51 -65 17 -4 33 0 49 13 24 19 24 19 41 -1 15 -19
20 -20 43 -9 34 15 69 15 84 0 10 -10 17 -10 32 0 11 6 30 12 42 12 22 0 23 4
24 73 0 72 -7 90 -33 80 -10 -4 -11 -19 -6 -61 l6 -55 -27 7 c-17 4 -34 2 -42
-5 -12 -10 -14 -2 -14 49 0 43 -4 61 -15 65 -22 9 -30 -12 -26 -71 l3 -52 -26
11 c-20 9 -29 9 -41 -1 -13 -11 -15 -9 -15 14 0 37 -35 69 -71 64 -45 -7 -56
15 -64 122 -6 89 -5 97 14 114 12 11 21 23 21 28 0 5 -7 2 -16 -6 -20 -20 -30
-21 -14 -1 16 19 10 19 -18 -1z m98 -324 c0 -5 -7 -10 -15 -10 -8 0 -15 5 -15
10 0 6 7 10 15 10 8 0 15 -4 15 -10z m210 -30 c0 -5 -5 -10 -11 -10 -5 0 -7 5
-4 10 3 6 8 10 11 10 2 0 4 -4 4 -10z"/>
<path d="M3282 3078 c-6 -9 -6 -62 0 -158 12 -178 11 -154 3 -280 -7 -93 -10
-108 -32 -132 -25 -26 -24 -48 1 -48 7 0 24 12 39 28 l26 27 3 255 c2 140 7
262 11 271 5 11 2 22 -8 33 -20 19 -29 20 -43 4z"/>
<path d="M1790 3055 c0 -21 5 -25 30 -25 25 0 30 4 30 25 0 21 -5 25 -30 25
-25 0 -30 -4 -30 -25z"/>
<path d="M4576 3051 c-19 -7 -18 -8 4 -14 26 -7 43 0 35 14 -7 10 -13 10 -39
0z"/>
<path d="M2986 3005 c-20 -20 -20 -26 -1 -51 8 -10 15 -41 15 -67 0 -26 7 -64
15 -84 8 -19 15 -57 15 -83 0 -30 5 -50 13 -53 9 -3 9 -9 -1 -26 -9 -16 -9
-21 0 -21 9 0 9 -3 0 -12 -8 -8 -12 -54 -12 -139 0 -75 -4 -130 -10 -134 -5
-3 -10 -17 -10 -31 0 -31 41 -54 65 -34 17 14 20 56 5 65 -6 4 -10 89 -10 221
0 168 -3 222 -15 251 -18 43 -20 126 -3 153 26 41 -31 79 -66 45z m39 -25 c3
-5 1 -10 -4 -10 -6 0 -11 5 -11 10 0 6 2 10 4 10 3 0 8 -4 11 -10z m35 -670
c0 -5 -5 -10 -11 -10 -5 0 -7 5 -4 10 3 6 8 10 11 10 2 0 4 -4 4 -10z"/>
<path d="M3820 3013 l-185 -3 -46 -46 -47 -46 -78 3 c-58 3 -79 0 -82 -10 -6
-19 18 -31 39 -20 10 5 42 9 71 9 51 0 56 3 98 46 l45 45 203 -3 c187 -3 202
-2 202 15 0 10 -7 16 -17 15 -10 -2 -101 -4 -203 -5z"/>
<path d="M2454 2999 c-3 -6 -1 -16 5 -22 6 -6 11 -48 11 -99 l0 -88 -80 0 -79
0 -1 -200 c0 -135 -4 -206 -11 -219 -17 -26 -4 -53 22 -49 34 5 47 33 26 56
-15 17 -17 41 -15 208 l3 189 74 0 c41 0 75 4 77 10 1 6 4 58 7 118 3 97 2
107 -14 107 -10 0 -21 -5 -25 -11z m-124 -649 c0 -5 -2 -10 -4 -10 -3 0 -8 5
-11 10 -3 6 -1 10 4 10 6 0 11 -4 11 -10z"/>
<path d="M2676 2992 c-3 -6 -2 -20 2 -33 l9 -23 6 25 c7 25 -6 48 -17 31z"/>
<path d="M2401 2947 c-5 -13 -50 -62 -100 -108 -91 -85 -91 -85 -91 -135 0
-27 -7 -57 -15 -68 -19 -25 -2 -58 28 -54 16 2 23 11 25 31 2 15 -1 27 -7 27
-7 0 -11 22 -11 54 l0 54 87 82 c47 45 97 86 110 91 13 5 23 17 23 29 0 29
-38 26 -49 -3z"/>
<path d="M3825 2942 l-190 -2 -47 -47 c-46 -45 -49 -46 -105 -44 -32 1 -66 4
-76 7 -19 6 -36 -22 -21 -35 5 -5 45 -5 88 0 79 8 80 8 121 54 l41 47 202 -4
c171 -2 202 -1 200 11 -4 18 13 17 -213 13z"/>
<path d="M4590 2905 c0 -8 7 -15 15 -15 8 0 15 7 15 15 0 8 -7 15 -15 15 -8 0
-15 -7 -15 -15z"/>
<path d="M4640 2905 c0 -8 7 -15 15 -15 8 0 15 7 15 15 0 8 -7 15 -15 15 -8 0
-15 -7 -15 -15z"/>
<path d="M4690 2905 c0 -8 9 -15 20 -15 11 0 20 7 20 15 0 8 -9 15 -20 15 -11
0 -20 -7 -20 -15z"/>
<path d="M3662 2850 c3 -12 16 -14 73 -10 88 6 130 6 225 0 61 -4 75 -2 78 10
2 13 -24 15 -188 15 -164 0 -190 -2 -188 -15z"/>
<path d="M4411 2861 c-10 -7 -12 -21 -8 -51 7 -56 1 -73 -23 -58 -25 16 -50 3
-50 -26 0 -28 23 -40 50 -26 10 6 28 10 38 10 18 0 21 8 24 68 4 70 -6 98 -31
83z m-41 -131 c0 -5 -5 -10 -11 -10 -5 0 -7 5 -4 10 3 6 8 10 11 10 2 0 4 -4
4 -10z"/>
<path d="M3600 2851 c0 -6 -14 -26 -31 -46 -29 -32 -35 -35 -88 -35 -31 0 -62
5 -69 12 -9 9 -15 9 -23 1 -16 -16 -3 -47 17 -39 9 3 42 6 74 6 55 0 62 3 107
42 51 44 59 61 31 66 -10 2 -18 -1 -18 -7z"/>
<path d="M3175 2784 c3 -25 3 -63 0 -85 -6 -33 -10 -39 -32 -39 -15 0 -23 -5
-20 -12 3 -10 55 -13 63 -5 1 1 4 44 5 95 3 73 1 92 -10 92 -10 0 -12 -10 -6
-46z"/>
<path d="M4250 2820 c0 -6 6 -13 14 -16 8 -3 12 -12 10 -19 -5 -12 32 -32 41
-23 10 10 -8 46 -21 41 -8 -3 -17 2 -20 11 -7 18 -24 22 -24 6z"/>
<path d="M2571 2787 c-5 -13 -15 -28 -23 -35 -12 -10 -15 -54 -15 -244 0 -128
-3 -252 -7 -275 -7 -39 -6 -43 13 -43 26 0 38 25 22 44 -8 9 -11 87 -9 257 l3
244 28 13 c34 16 45 41 26 53 -22 13 -29 11 -38 -14z"/>
<path d="M2926 2775 c5 -22 3 -25 -21 -25 -17 0 -25 -5 -22 -12 2 -7 15 -11
28 -10 29 5 25 0 34 40 5 26 3 32 -9 32 -12 0 -15 -6 -10 -25z"/>
<path d="M2736 2744 c-12 -11 -13 -20 -6 -34 6 -10 10 -86 10 -168 l0 -149 85
-59 c81 -56 85 -61 85 -97 0 -21 -8 -49 -17 -64 -16 -25 -16 -26 6 -44 17 -14
27 -16 42 -9 20 11 26 45 9 55 -5 3 -10 31 -10 61 l0 54 -85 56 -85 57 0 148
c0 88 4 150 10 154 16 10 11 34 -9 45 -15 7 -23 6 -35 -6z m194 -594 c0 -5 -4
-10 -10 -10 -5 0 -10 5 -10 10 0 6 5 10 10 10 6 0 10 -4 10 -10z"/>
<path d="M3660 2742 c-19 -5 -40 -32 -40 -49 0 -17 36 -53 53 -53 8 0 25 9 38
21 22 19 33 20 119 15 52 -3 109 -6 125 -8 27 -3 30 0 30 27 0 26 -3 30 -25
26 -14 -2 -71 -5 -126 -8 -77 -3 -105 -1 -115 9 -19 19 -41 26 -59 20z m30
-46 c0 -11 -19 -15 -25 -6 -3 5 1 10 9 10 9 0 16 -2 16 -4z m137 -2 c-3 -3
-12 -4 -19 -1 -8 3 -5 6 6 6 11 1 17 -2 13 -5z m143 -4 c0 -5 -2 -10 -4 -10
-3 0 -8 5 -11 10 -3 6 -1 10 4 10 6 0 11 -4 11 -10z"/>
<path d="M2405 2720 c-3 -10 -1 -28 4 -39 6 -11 11 -60 11 -110 0 -86 -1 -91
-25 -107 -26 -17 -34 -54 -12 -54 7 0 25 12 40 28 24 25 26 34 28 127 1 55 6
108 11 118 14 27 0 57 -27 57 -15 0 -26 -7 -30 -20z"/>
<path d="M3240 2715 c0 -9 5 -15 11 -13 6 2 11 8 11 13 0 5 -5 11 -11 13 -6 2
-11 -4 -11 -13z"/>
<path d="M3468 2714 c-2 -1 -3 -37 -2 -80 l0 -78 57 -2 c39 -1 57 3 61 12 3 7
1 16 -4 19 -13 8 -13 71 0 95 7 13 7 21 -2 26 -11 7 -105 14 -110 8z m44 -56
c4 -30 -2 -68 -12 -68 -10 0 -16 38 -12 68 2 12 7 22 12 22 5 0 10 -10 12 -22z
m43 2 c8 -26 -4 -82 -16 -74 -12 7 -12 94 0 94 5 0 13 -9 16 -20z"/>
<path d="M2903 2693 c9 -2 23 -2 30 0 6 3 -1 5 -18 5 -16 0 -22 -2 -12 -5z"/>
<path d="M3377 2694 c-4 -4 -7 -18 -7 -31 0 -18 5 -23 26 -23 22 0 25 4 22 27
-3 27 -26 41 -41 27z"/>
<path d="M3240 2665 c0 -8 5 -15 10 -15 6 0 10 7 10 15 0 8 -4 15 -10 15 -5 0
-10 -7 -10 -15z"/>
<path d="M2890 2641 c0 -5 11 -8 25 -8 14 0 28 3 31 8 3 5 -9 9 -25 9 -17 0
-31 -4 -31 -9z"/>
<path d="M3240 2615 c0 -8 5 -15 10 -15 6 0 10 7 10 15 0 8 -4 15 -10 15 -5 0
-10 -7 -10 -15z"/>
<path d="M3840 2623 l-125 -4 -46 -45 -47 -46 -78 3 c-67 3 -79 1 -82 -13 -3
-14 7 -16 80 -11 82 5 84 6 129 50 l46 45 139 -3 c116 -3 139 -1 139 11 0 17
5 17 -155 13z"/>
<path d="M3119 2618 c-7 -15 -6 -58 2 -58 5 0 9 14 9 30 0 25 -6 39 -11 28z"/>
<path d="M3152 2590 c0 -19 2 -27 5 -17 2 9 2 25 0 35 -3 9 -5 1 -5 -18z"/>
<path d="M3370 2585 c0 -20 5 -25 25 -25 20 0 25 5 25 25 0 20 -5 25 -25 25
-20 0 -25 -5 -25 -25z"/>
<path d="M2890 2589 c0 -5 11 -9 25 -9 14 0 25 4 25 9 0 5 -11 9 -25 9 -14 0
-25 -4 -25 -9z"/>
<path d="M4364 2576 c-12 -32 4 -49 41 -43 34 6 35 5 34 -26 -1 -18 -4 -43 -8
-56 -6 -23 -9 -21 -67 42 l-60 65 -139 3 c-125 3 -140 1 -143 -14 -4 -21 25
-34 41 -18 7 7 53 11 123 11 l112 0 150 -156 c93 -98 154 -154 162 -149 6 4
20 -1 30 -10 35 -32 79 10 46 43 -13 14 -20 14 -36 4 -36 -22 -55 -13 -134 67
-63 63 -75 80 -60 83 17 3 19 13 19 81 0 62 -3 77 -15 77 -8 0 -32 3 -52 6
-29 5 -39 3 -44 -10z m36 -16 c0 -5 -2 -10 -4 -10 -3 0 -8 5 -11 10 -3 6 -1
10 4 10 6 0 11 -4 11 -10z m275 -310 c3 -5 1 -10 -4 -10 -6 0 -11 5 -11 10 0
6 2 10 4 10 3 0 8 -4 11 -10z"/>
<path d="M4494 2576 c-12 -32 4 -49 42 -43 l36 6 -4 -57 c-3 -51 -1 -57 17
-57 19 0 20 5 16 75 -2 41 -4 76 -5 77 0 0 -22 4 -48 8 -39 6 -49 4 -54 -9z
m36 -16 c0 -5 -4 -10 -10 -10 -5 0 -10 5 -10 10 0 6 5 10 10 10 6 0 10 -4 10
-10z"/>
<path d="M4624 2576 c-12 -32 4 -49 42 -43 l35 6 -3 -57 c-3 -51 -1 -57 17
-57 19 0 20 5 16 75 -2 41 -4 76 -5 76 0 1 -22 5 -49 8 -38 6 -48 4 -53 -8z"/>
<path d="M4778 2579 c-19 -11 -25 -64 -8 -74 6 -4 10 -69 10 -163 l0 -158 -73
-72 -72 -72 -205 0 -204 0 -25 30 c-38 45 -87 50 -129 15 -27 -22 -32 -34 -32
-70 0 -36 5 -48 31 -69 44 -37 84 -34 125 9 l33 35 216 0 216 0 85 86 84 86 0
159 c0 127 3 165 17 193 16 34 16 37 -2 56 -20 22 -41 25 -67 9z m42 -39 c0
-5 -4 -10 -10 -10 -5 0 -10 5 -10 10 0 6 5 10 10 10 6 0 10 -4 10 -10z m-675
-520 c3 -6 -1 -13 -10 -16 -19 -8 -30 0 -20 15 8 14 22 14 30 1z"/>
<path d="M3240 2565 c0 -9 5 -15 11 -13 6 2 11 8 11 13 0 5 -5 11 -11 13 -6 2
-11 -4 -11 -13z"/>
<path d="M2250 2550 c-14 -10 -22 -21 -19 -24 9 -9 59 18 59 32 0 17 -11 15
-40 -8z"/>
<path d="M3915 2559 c-33 -4 -94 -7 -135 -8 l-76 -1 -44 -46 -45 -46 -78 5
c-69 5 -78 3 -75 -11 3 -14 16 -16 83 -14 l80 3 46 51 47 51 132 -9 c95 -6
134 -6 141 2 17 21 -14 30 -76 23z"/>
<path d="M2910 2540 l-25 -8 28 -1 c15 -1 27 4 27 9 0 6 -1 10 -2 9 -2 -1 -14
-5 -28 -9z"/>
<path d="M2258 2512 c-39 -24 -37 -46 2 -24 16 9 30 23 30 30 0 6 -1 12 -2 11
-2 0 -15 -8 -30 -17z"/>
<path d="M3386 2512 c-3 -6 -2 -20 2 -33 l9 -23 6 25 c7 25 -6 48 -17 31z"/>
<path d="M3108 2489 c-20 -11 -24 -39 -8 -55 27 -27 26 -468 -1 -501 -19 -22
0 -53 31 -53 36 0 50 33 26 59 -23 26 -24 472 -1 491 21 17 19 47 -4 60 -23
12 -22 12 -43 -1z m32 -29 c0 -5 -4 -10 -10 -10 -5 0 -10 5 -10 10 0 6 5 10
10 10 6 0 10 -4 10 -10z m0 -546 c0 -8 -5 -12 -10 -9 -6 4 -8 11 -5 16 9 14
15 11 15 -7z"/>
<path d="M3840 2493 l-125 -4 -46 -45 -47 -46 -78 3 c-67 3 -79 1 -82 -13 -3
-14 7 -16 80 -11 82 5 84 6 128 49 39 38 52 44 88 44 34 0 50 -7 77 -31 19
-17 35 -41 37 -53 4 -29 42 -29 46 2 3 16 -2 22 -15 22 -11 0 -32 14 -49 31
l-29 31 85 -4 c70 -2 85 0 85 12 0 17 6 17 -155 13z"/>
<path d="M2890 2483 c0 -5 11 -8 25 -8 14 0 25 3 25 8 0 4 -11 7 -25 7 -14 0
-25 -3 -25 -7z"/>
<path d="M3301 2456 c-30 -31 -33 -40 -29 -74 3 -22 2 -77 -3 -123 -7 -71 -6
-86 7 -96 9 -6 22 -9 29 -7 19 8 28 35 15 48 -5 5 -10 55 -10 111 0 95 1 101
25 119 26 20 34 56 12 56 -7 0 -28 -15 -46 -34z"/>
<path d="M2250 2460 c-14 -10 -22 -22 -18 -25 8 -8 58 24 58 36 0 14 -13 10
-40 -11z"/>
<path d="M4182 2458 c-28 -28 5 -71 38 -50 10 6 41 12 69 13 52 3 52 2 121
-66 39 -38 70 -75 70 -82 0 -6 -10 -13 -22 -15 -15 -2 -23 -10 -23 -23 0 -13
8 -21 23 -23 17 -3 22 2 22 17 0 23 19 28 37 10 16 -16 -28 -72 -73 -94 -23
-11 -34 -22 -32 -33 5 -27 37 -27 47 0 10 27 70 88 86 88 16 0 35 -22 35 -41
0 -18 18 -29 38 -22 15 6 16 43 0 43 -6 0 -73 61 -148 135 l-136 135 -51 0
c-29 0 -55 5 -58 10 -8 14 -28 13 -43 -2z"/>
<path d="M4098 2416 c-19 -24 -28 -47 -28 -71 0 -19 -5 -44 -12 -54 -6 -10 -8
-26 -5 -35 8 -20 53 -21 61 -1 6 18 -2 45 -15 45 -13 0 -11 74 3 88 7 7 20 12
29 12 22 0 31 13 23 34 -9 25 -26 19 -56 -18z"/>
<path d="M2258 2422 c-16 -9 -28 -23 -28 -31 0 -11 4 -11 18 2 10 10 24 17 30
17 7 0 12 7 12 15 0 18 1 18 -32 -3z"/>
<path d="M2890 2431 c0 -5 11 -8 25 -8 14 0 25 3 25 8 0 5 -11 9 -25 9 -14 0
-25 -4 -25 -9z"/>
<path d="M3737 2421 c-23 -8 -35 -101 -14 -101 8 0 11 14 8 46 -3 46 -3 47 23
40 19 -5 26 -3 26 9 0 16 -14 18 -43 6z"/>
<path d="M3797 2384 c6 -47 6 -47 -20 -40 -20 5 -27 3 -27 -9 0 -10 10 -15 30
-15 27 0 30 3 30 33 0 17 3 42 6 55 5 16 2 22 -10 22 -13 0 -15 -8 -9 -46z"/>
<path d="M2890 2378 c0 -5 11 -8 25 -8 14 0 25 3 25 8 0 4 -11 7 -25 7 -14 0
-25 -3 -25 -7z"/>
<path d="M2453 2363 c-22 -4 -23 -8 -24 -134 -1 -71 -2 -133 -3 -139 -1 -5 3
-9 8 -7 5 1 8 62 7 136 l-2 134 25 -7 c19 -5 26 -3 26 9 0 8 -3 14 -7 14 -5
-1 -18 -4 -30 -6z"/>
<path d="M4197 2353 c-3 -5 -1 -17 4 -28 4 -11 8 -15 8 -8 1 6 4 18 7 27 6 16
-11 23 -19 9z"/>
<path d="M3370 2337 c0 -7 15 -27 33 -44 l32 -32 277 -3 c287 -3 297 -2 282
36 -7 19 -28 26 -45 15 -8 -5 -69 -9 -136 -9 -75 0 -123 -4 -123 -10 0 -5 -9
-10 -20 -10 -11 0 -20 5 -20 10 0 6 -41 10 -103 10 -97 0 -105 1 -127 25 -25
27 -50 33 -50 12z m600 -57 c0 -5 -5 -10 -11 -10 -5 0 -7 5 -4 10 3 6 8 10 11
10 2 0 4 -4 4 -10z"/>
<path d="M3516 2343 c-11 -11 -6 -23 9 -23 8 0 15 4 15 9 0 13 -16 22 -24 14z"/>
<path d="M3566 2343 c-11 -11 -6 -23 9 -23 8 0 15 4 15 9 0 13 -16 22 -24 14z"/>
<path d="M3610 2336 c0 -9 7 -16 16 -16 17 0 14 22 -4 28 -7 2 -12 -3 -12 -12z"/>
<path d="M3660 2336 c0 -9 7 -16 16 -16 17 0 14 22 -4 28 -7 2 -12 -3 -12 -12z"/>
<path d="M2573 2324 c-3 -8 -1 -25 5 -37 12 -26 24 -347 15 -429 l-6 -58 -73
0 -74 0 0 -93 c0 -57 -4 -97 -12 -105 -14 -14 7 -43 26 -36 9 4 11 33 8 114
l-5 110 77 0 76 0 0 245 c0 137 4 245 9 245 13 0 21 27 15 45 -8 20 -53 19
-61 -1z"/>
<path d="M2248 2295 c-38 -45 -35 -49 7 -9 19 18 35 35 35 38 0 14 -17 2 -42
-29z"/>
<path d="M4145 2256 c-20 -15 -15 -43 10 -52 18 -7 45 12 45 32 0 22 -35 35
-55 20z"/>
<path d="M4236 2255 c-20 -21 -5 -55 25 -55 24 0 36 27 22 48 -14 23 -29 25
-47 7z m34 -19 c0 -3 -4 -8 -10 -11 -5 -3 -10 -1 -10 4 0 6 5 11 10 11 6 0 10
-2 10 -4z"/>
<path d="M4332 2261 c-8 -4 -12 -19 -10 -32 2 -18 9 -24 28 -24 19 0 26 6 28
24 3 20 -11 41 -28 41 -3 0 -11 -4 -18 -9z m28 -31 c0 -5 -4 -10 -10 -10 -5 0
-10 5 -10 10 0 6 5 10 10 10 6 0 10 -4 10 -10z"/>
<path d="M2249 2248 c-7 -15 -6 -58 2 -58 5 0 9 14 9 30 0 25 -6 39 -11 28z"/>
<path d="M2282 2220 c0 -19 2 -27 5 -17 2 9 2 25 0 35 -3 9 -5 1 -5 -18z"/>
<path d="M2312 2220 c0 -19 2 -27 5 -17 2 9 2 25 0 35 -3 9 -5 1 -5 -18z"/>
<path d="M2340 2221 c0 -17 2 -31 4 -31 8 0 13 51 5 56 -5 3 -9 -9 -9 -25z"/>
<path d="M2370 2222 c0 -18 4 -32 9 -32 5 0 8 11 7 25 -4 38 -16 43 -16 7z"/>
<path d="M2210 2195 c0 -19 5 -35 10 -35 6 0 10 16 10 35 0 19 -4 35 -10 35
-5 0 -10 -16 -10 -35z"/>
<path d="M3357 2223 c-2 -5 -2 -25 0 -45 5 -37 7 -38 44 -38 21 0 39 5 39 10
0 6 -13 10 -30 10 -30 0 -34 6 -30 48 1 21 -14 31 -23 15z"/>
<path d="M3983 2223 c-18 -4 -23 -11 -23 -38 0 -18 -3 -40 -6 -49 -4 -11 -1
-16 10 -16 13 0 15 8 9 46 -6 47 -6 47 20 40 20 -5 27 -3 27 9 0 8 -3 14 -7
14 -5 -1 -18 -4 -30 -6z"/>
<path d="M3562 2211 c-19 -12 -11 -45 12 -49 25 -5 39 12 31 37 -7 22 -21 26
-43 12z"/>
<path d="M3647 2214 c-4 -4 -7 -18 -7 -31 0 -18 5 -23 26 -23 22 0 25 4 22 27
-3 27 -26 41 -41 27z"/>
<path d="M3737 2214 c-4 -4 -7 -18 -7 -31 0 -18 5 -23 26 -23 22 0 25 4 22 27
-3 27 -26 41 -41 27z"/>
<path d="M3822 2211 c-23 -14 -10 -46 18 -46 16 0 26 6 28 19 3 16 -12 36 -28
36 -3 0 -11 -4 -18 -9z"/>
<path d="M2956 2100 l-103 -101 0 -157 c1 -86 -1 -224 -3 -307 l-5 -150 26 -3
c31 -4 44 19 29 48 -6 11 -10 126 -10 282 l0 263 95 95 c52 52 95 100 95 107
0 34 -31 15 -124 -77z m-76 -690 c0 -5 -5 -10 -11 -10 -5 0 -7 5 -4 10 3 6 8
10 11 10 2 0 4 -4 4 -10z"/>
<path d="M2770 2162 c0 -8 53 -42 66 -42 11 0 -10 29 -24 34 -9 3 -23 9 -29
12 -7 3 -13 1 -13 -4z"/>
<path d="M4032 2150 c0 -14 2 -19 5 -12 2 6 2 18 0 25 -3 6 -5 1 -5 -13z"/>
<path d="M4082 2150 c0 -14 2 -19 5 -12 2 6 2 18 0 25 -3 6 -5 1 -5 -13z"/>
<path d="M4102 2150 c0 -14 2 -19 5 -12 2 6 2 18 0 25 -3 6 -5 1 -5 -13z"/>
<path d="M4122 2150 c0 -14 2 -19 5 -12 2 6 2 18 0 25 -3 6 -5 1 -5 -13z"/>
<path d="M4140 2150 c0 -13 7 -20 20 -20 11 0 20 4 20 10 0 5 -7 7 -15 4 -8
-4 -15 -1 -15 4 0 6 8 13 18 15 13 4 11 5 -5 6 -17 1 -23 -5 -23 -19z"/>
<path d="M4192 2150 c0 -14 2 -19 5 -12 2 6 2 18 0 25 -3 6 -5 1 -5 -13z"/>
<path d="M4212 2150 c0 -14 2 -19 5 -12 2 6 2 18 0 25 -3 6 -5 1 -5 -13z"/>
<path d="M4232 2150 c0 -14 2 -19 5 -12 2 6 2 18 0 25 -3 6 -5 1 -5 -13z"/>
<path d="M4282 2150 c0 -14 2 -19 5 -12 2 6 2 18 0 25 -3 6 -5 1 -5 -13z"/>
<path d="M4302 2150 c0 -14 2 -19 5 -12 2 6 2 18 0 25 -3 6 -5 1 -5 -13z"/>
<path d="M4322 2150 c0 -14 2 -19 5 -12 2 6 2 18 0 25 -3 6 -5 1 -5 -13z"/>
<path d="M2304 2130 c3 -18 6 -59 6 -91 l0 -58 90 -3 c148 -5 108 -23 -50 -23
l-140 0 0 -38 c0 -38 1 -38 31 -32 28 6 194 8 259 2 24 -2 25 0 25 58 l0 59
-98 -3 -99 -3 3 79 c3 70 2 78 -15 81 -16 4 -18 0 -12 -28z m134 -196 c34 -4
59 -11 56 -15 -7 -12 -254 -11 -254 0 0 9 29 14 111 19 14 1 54 -1 87 -4z"/>
<path d="M2389 2153 c-1 -4 0 -32 1 -62 2 -53 2 -54 -24 -47 -19 5 -26 3 -26
-9 0 -16 27 -20 46 -7 14 8 24 121 12 128 -4 3 -9 2 -9 -3z"/>
<path d="M4255 2140 c-3 -5 -1 -10 4 -10 6 0 11 5 11 10 0 6 -2 10 -4 10 -3 0
-8 -4 -11 -10z"/>
<path d="M4345 2140 c-3 -5 -1 -10 4 -10 6 0 11 5 11 10 0 6 -2 10 -4 10 -3 0
-8 -4 -11 -10z"/>
<path d="M2770 2121 c0 -12 50 -44 57 -37 6 6 -37 45 -49 46 -5 0 -8 -4 -8 -9z"/>
<path d="M3359 2118 c0 -2 -2 -31 -3 -66 -3 -42 0 -62 7 -59 7 2 10 25 8 55
-2 50 -1 52 23 52 14 0 26 5 26 10 0 8 -59 15 -61 8z"/>
<path d="M3951 2084 c-25 -18 -27 -46 -6 -64 11 -9 15 -33 15 -89 0 -75 1 -78
34 -110 l35 -34 5 -131 c5 -156 5 -109 0 -399 -5 -222 -6 -239 -25 -258 -27
-27 -22 -69 12 -88 24 -13 29 -13 53 2 33 22 36 71 6 89 -19 12 -20 24 -20
408 l0 396 -35 34 c-34 33 -35 37 -35 104 1 46 6 78 15 90 28 36 -16 76 -54
50z m109 -1124 c0 -5 -7 -10 -16 -10 -8 0 -12 5 -9 10 3 6 10 10 16 10 5 0 9
-4 9 -10z"/>
<path d="M2464 2064 c6 -24 5 -26 -19 -20 -18 5 -25 2 -25 -9 0 -10 10 -15 30
-15 23 0 30 5 30 19 0 11 3 26 6 35 4 11 1 16 -11 16 -14 0 -16 -6 -11 -26z"/>
<path d="M2770 2078 c0 -7 14 -21 30 -30 21 -12 30 -13 30 -5 0 7 -13 21 -30
30 -22 14 -30 15 -30 5z"/>
<path d="M3238 2079 c-20 -11 -24 -44 -8 -54 17 -10 12 -227 -6 -270 -10 -25
-13 -50 -9 -76 9 -50 25 -50 25 0 0 21 7 55 15 74 10 25 15 71 15 147 0 70 4
117 12 130 9 15 10 25 2 37 -14 22 -25 25 -46 12z m32 -23 c0 -3 -4 -8 -10
-11 -5 -3 -10 -1 -10 4 0 6 5 11 10 11 6 0 10 -2 10 -4z"/>
<path d="M3467 2074 c-4 -4 -7 -38 -7 -75 0 -55 3 -70 18 -77 20 -11 104 -14
145 -6 l28 6 -3 76 -3 77 -85 3 c-47 1 -89 0 -93 -4z m103 -88 c-13 -13 -35 7
-25 24 5 8 11 8 21 -1 10 -8 12 -15 4 -23z"/>
<path d="M3718 2069 c-20 -11 -24 -44 -8 -54 6 -4 10 -62 10 -140 l0 -134 113
-3 112 -3 2 -270 c1 -262 1 -271 -20 -293 -43 -47 22 -112 67 -67 21 22 20 41
-4 65 -19 19 -20 33 -20 305 l0 285 -110 0 -110 0 0 120 c0 79 4 127 12 140 9
15 10 25 2 37 -14 22 -25 25 -46 12z m252 -935 c0 -8 -4 -12 -10 -9 -5 3 -10
10 -10 16 0 5 5 9 10 9 6 0 10 -7 10 -16z"/>
<path d="M2770 2033 c0 -5 14 -17 30 -26 25 -15 30 -16 30 -4 0 8 -8 17 -17
21 -10 3 -24 9 -30 12 -7 3 -13 2 -13 -3z"/>
<path d="M2225 2001 c-17 -7 -17 -8 8 -15 33 -8 56 2 36 15 -16 10 -18 10 -44
0z"/>
<path d="M2770 1991 c0 -12 50 -44 57 -37 6 6 -37 45 -49 46 -5 0 -8 -4 -8 -9z"/>
<path d="M3790 1966 c0 -25 5 -36 19 -41 33 -10 51 5 51 41 0 32 -2 34 -35 34
-33 0 -35 -2 -35 -34z m50 0 c0 -11 -19 -15 -25 -6 -3 5 1 10 9 10 9 0 16 -2
16 -4z"/>
<path d="M3359 1963 c-1 -4 0 -18 1 -31 1 -20 -2 -22 -24 -16 -20 5 -26 2 -26
-11 0 -13 6 -16 23 -11 12 3 28 6 35 6 14 0 17 56 2 65 -5 3 -10 3 -11 -2z"/>
<path d="M2770 1948 c0 -7 14 -21 30 -30 21 -12 30 -13 30 -5 0 7 -13 21 -30
30 -22 14 -30 15 -30 5z"/>
<path d="M2987 1934 c-12 -12 -8 -34 6 -34 6 0 49 -34 95 -76 81 -75 82 -76
82 -125 0 -27 -5 -58 -12 -68 -14 -22 -4 -51 17 -51 21 0 31 29 17 51 -7 10
-12 42 -12 71 0 51 0 52 -87 142 -96 100 -96 99 -106 90z"/>
<path d="M2770 1909 c0 -8 14 -22 30 -31 25 -14 30 -15 30 -3 0 8 -5 15 -12
15 -6 0 -20 7 -30 17 -14 13 -18 13 -18 2z"/>
<path d="M3520 1876 c-5 -14 -18 -31 -30 -38 -16 -10 -20 -23 -20 -66 0 -29
-5 -61 -12 -71 -15 -24 -4 -51 22 -51 26 0 37 27 22 51 -7 10 -12 41 -12 68 0
41 4 51 25 65 13 9 32 16 40 16 23 0 15 44 -7 48 -12 2 -21 -6 -28 -22z m-30
-196 c0 -5 -4 -10 -10 -10 -5 0 -10 5 -10 10 0 6 5 10 10 10 6 0 10 -4 10 -10z"/>
<path d="M3792 1853 c3 -35 5 -38 33 -38 28 0 30 3 30 35 0 32 -3 35 -33 38
-33 3 -33 3 -30 -35z"/>
<path d="M2250 1855 c0 -8 7 -15 15 -15 8 0 15 7 15 15 0 8 -7 15 -15 15 -8 0
-15 -7 -15 -15z"/>
<path d="M2300 1855 c0 -8 7 -15 15 -15 8 0 15 7 15 15 0 8 -7 15 -15 15 -8 0
-15 -7 -15 -15z"/>
<path d="M2357 1855 c-5 -10 0 -15 14 -15 12 0 19 5 17 12 -6 18 -25 20 -31 3z"/>
<path d="M2410 1855 c0 -8 7 -15 15 -15 8 0 15 7 15 15 0 8 -7 15 -15 15 -8 0
-15 -7 -15 -15z"/>
<path d="M2460 1855 c0 -8 7 -15 15 -15 8 0 15 7 15 15 0 8 -7 15 -15 15 -8 0
-15 -7 -15 -15z"/>
<path d="M2770 1861 c0 -12 50 -44 58 -36 4 3 -4 15 -18 25 -27 21 -40 25 -40
11z"/>
<path d="M2770 1816 c0 -9 5 -16 12 -16 6 0 20 -7 30 -17 15 -13 18 -13 18 -2
0 8 -13 23 -30 32 -26 16 -30 16 -30 3z"/>
<path d="M3011 1821 c-9 -6 -12 -18 -7 -36 4 -15 7 -118 7 -230 l0 -202 30
-28 c22 -22 32 -26 40 -18 9 9 5 20 -14 42 -25 30 -25 35 -26 178 0 82 3 177
8 213 10 78 -2 104 -38 81z"/>
<path d="M3570 1815 c-17 -20 -3 -48 26 -53 10 -2 29 -13 41 -24 22 -20 22
-23 23 -359 0 -290 -2 -342 -15 -363 -17 -25 -12 -51 11 -60 38 -14 63 24 39
60 -13 20 -15 77 -15 372 l0 349 -24 22 c-14 13 -26 33 -28 45 -4 26 -40 33
-58 11z m40 -15 c0 -5 -4 -10 -10 -10 -5 0 -10 5 -10 10 0 6 5 10 10 10 6 0
10 -4 10 -10z m70 -810 c0 -5 -4 -10 -10 -10 -5 0 -10 5 -10 10 0 6 5 10 10
10 6 0 10 -4 10 -10z"/>
<path d="M3310 1805 c-10 -12 -10 -19 -2 -27 7 -7 12 -20 12 -29 0 -10 23 -39
50 -65 l50 -47 0 -177 c0 -99 -4 -180 -10 -186 -14 -14 5 -38 25 -30 12 4 15
11 9 24 -5 9 -10 100 -12 201 l-3 184 -47 42 c-42 39 -46 45 -34 64 16 28 15
48 -4 55 -21 8 -20 8 -34 -9z"/>
<path d="M2930 1780 c0 -13 7 -20 20 -20 13 0 20 7 20 20 0 13 -7 20 -20 20
-13 0 -20 -7 -20 -20z"/>
<path d="M2770 1773 c0 -5 14 -16 30 -25 22 -13 30 -14 30 -4 0 7 -11 18 -25
24 -30 14 -35 15 -35 5z"/>
<path d="M2770 1731 c0 -12 50 -44 58 -36 4 3 -4 15 -18 25 -27 21 -40 25 -40
11z"/>
<path d="M2930 1715 c0 -18 5 -25 20 -25 15 0 20 7 20 25 0 18 -5 25 -20 25
-15 0 -20 -7 -20 -25z"/>
<path d="M2483 1714 c-3 -9 -1 -25 5 -35 7 -10 12 -41 12 -67 0 -49 0 -49 -94
-135 -52 -48 -102 -87 -111 -87 -11 0 -15 -7 -13 -22 4 -29 34 -36 43 -10 3
11 48 62 100 113 94 92 95 93 95 141 0 27 5 57 12 67 15 24 4 51 -22 51 -11 0
-23 -7 -27 -16z m37 -14 c0 -5 -4 -10 -10 -10 -5 0 -10 5 -10 10 0 6 5 10 10
10 6 0 10 -4 10 -10z"/>
<path d="M2567 1723 c-2 -4 0 -69 5 -143 5 -74 7 -227 4 -339 -4 -173 -8 -206
-22 -222 -24 -27 -5 -69 31 -69 38 0 55 42 29 71 -18 20 -19 39 -19 288 0 146
2 300 5 341 4 64 3 75 -12 78 -9 2 -18 -1 -21 -5z m23 -733 c0 -5 -2 -10 -4
-10 -3 0 -8 5 -11 10 -3 6 -1 10 4 10 6 0 11 -4 11 -10z"/>
<path d="M2770 1686 c0 -9 5 -16 12 -16 6 0 20 -7 30 -17 15 -13 18 -13 18 -2
0 8 -13 23 -30 32 -26 16 -30 16 -30 3z"/>
<path d="M3567 1693 c-3 -4 0 -53 5 -108 13 -132 5 -419 -12 -440 -7 -8 -21
-15 -32 -15 -14 0 -19 -6 -16 -22 4 -28 36 -36 45 -11 3 10 12 25 20 34 11 13
15 72 18 265 2 137 5 260 7 274 2 16 -2 25 -14 28 -9 2 -18 -1 -21 -5z"/>
<path d="M2770 1649 c0 -8 14 -22 30 -31 25 -14 30 -15 30 -3 0 8 -5 15 -12
15 -6 0 -20 7 -30 17 -14 13 -18 13 -18 2z"/>
<path d="M3705 1636 c-13 -19 -14 -29 -6 -45 7 -11 11 -83 11 -171 l0 -152 45
-45 c46 -45 77 -53 83 -20 2 10 -12 33 -34 55 l-38 37 2 139 c1 81 6 144 12
150 15 15 12 41 -8 59 -26 24 -49 21 -67 -7z m45 -26 c0 -5 -4 -10 -10 -10 -5
0 -10 5 -10 10 0 6 5 10 10 10 6 0 10 -4 10 -10z"/>
<path d="M3223 1585 c-8 -25 -13 -99 -13 -193 0 -84 -4 -162 -10 -172 -19 -36
17 -73 47 -48 10 8 12 20 7 37 -4 14 -10 114 -13 221 -5 175 -7 191 -18 155z
m17 -385 c0 -5 -4 -10 -10 -10 -5 0 -10 5 -10 10 0 6 5 10 10 10 6 0 10 -4 10
-10z"/>
<path d="M2770 1600 c0 -5 14 -16 30 -25 36 -19 40 -4 5 19 -28 19 -35 20 -35
6z"/>
<path d="M3832 1560 c-11 -18 -10 -20 13 -20 27 0 28 1 19 24 -8 21 -17 20
-32 -4z"/>
<path d="M2770 1558 c0 -13 50 -41 58 -33 5 5 -39 44 -50 45 -5 0 -8 -6 -8
-12z"/>
<path d="M2930 1550 c0 -13 7 -20 20 -20 13 0 20 7 20 20 0 13 -7 20 -20 20
-13 0 -20 -7 -20 -20z"/>
<path d="M3060 1561 c0 -6 5 -13 10 -16 6 -3 10 1 10 9 0 9 -4 16 -10 16 -5 0
-10 -4 -10 -9z"/>
<path d="M3338 1543 c6 -2 18 -2 25 0 6 3 1 5 -13 5 -14 0 -19 -2 -12 -5z"/>
<path d="M2770 1517 c0 -7 14 -20 30 -29 21 -12 30 -13 30 -5 0 7 -14 20 -30
29 -21 12 -30 13 -30 5z"/>
<path d="M3060 1515 c0 -8 5 -15 10 -15 6 0 10 7 10 15 0 8 -4 15 -10 15 -5 0
-10 -7 -10 -15z"/>
<path d="M3824 1505 c-9 -23 3 -45 26 -45 16 0 20 7 20 30 0 23 -4 30 -20 30
-11 0 -23 -7 -26 -15z"/>
<path d="M3330 1499 c0 -5 9 -9 20 -9 11 0 20 4 20 8 0 4 -9 8 -20 9 -11 1
-20 -2 -20 -8z"/>
<path d="M2930 1480 c0 -13 7 -20 20 -20 13 0 20 7 20 20 0 13 -7 20 -20 20
-13 0 -20 -7 -20 -20z"/>
<path d="M3066 1481 c-4 -7 -5 -15 -2 -18 9 -9 19 4 14 18 -4 11 -6 11 -12 0z"/>
<path d="M3343 1453 c9 -2 23 -2 30 0 6 3 -1 5 -18 5 -16 0 -22 -2 -12 -5z"/>
<path d="M3060 1430 c0 -5 5 -10 10 -10 6 0 10 5 10 10 0 6 -4 10 -10 10 -5 0
-10 -4 -10 -10z"/>
<path d="M2930 1405 c0 -18 5 -25 20 -25 15 0 20 7 20 25 0 18 -5 25 -20 25
-15 0 -20 -7 -20 -25z"/>
<path d="M3144 1410 c0 -11 4 -20 8 -20 4 0 8 9 8 20 0 11 -4 20 -8 20 -4 0
-8 -9 -8 -20z"/>
<path d="M3170 1410 c0 -11 4 -20 8 -20 4 0 8 9 8 20 0 11 -4 20 -8 20 -4 0
-8 -9 -8 -20z"/>
<path d="M3820 1405 c0 -20 5 -25 25 -25 20 0 25 5 25 25 0 20 -5 25 -25 25
-20 0 -25 -5 -25 -25z"/>
<path d="M3330 1411 c0 -6 9 -9 20 -8 11 1 20 5 20 9 0 4 -9 8 -20 8 -11 0
-20 -4 -20 -9z"/>
<path d="M3060 1390 c0 -5 5 -10 10 -10 6 0 10 5 10 10 0 6 -4 10 -10 10 -5 0
-10 -4 -10 -10z"/>
<path d="M3338 1363 c6 -2 18 -2 25 0 6 3 1 5 -13 5 -14 0 -19 -2 -12 -5z"/>
<path d="M2945 1350 c-8 -13 -1 -24 14 -19 6 3 7 10 2 18 -6 10 -10 10 -16 1z"/>
<path d="M3820 1325 c0 -20 5 -25 25 -25 20 0 25 5 25 25 0 20 -5 25 -25 25
-20 0 -25 -5 -25 -25z"/>
<path d="M3330 1326 c0 -2 9 -6 20 -9 11 -3 20 -1 20 4 0 5 -9 9 -20 9 -11 0
-20 -2 -20 -4z"/>
<path d="M3330 1278 c0 -4 9 -8 20 -8 11 0 20 4 20 8 0 4 -9 8 -20 8 -11 0
-20 -4 -20 -8z"/>
<path d="M3343 1233 c9 -2 23 -2 30 0 6 3 -1 5 -18 5 -16 0 -22 -2 -12 -5z"/>
</g>
</svg>
